M48
METRIC,LZ,000.000
;FILE_FORMAT=3:3
;TYPE=PLATED
;Layer: PTH_Through
;EasyEDA v6.5.23, 2025-01-15 23:58:28
;61e01307cd854d7a9ca4b8b954f7b644,f9be1a6569124c8bb78035afb8aa2461,10
;Gerber Generator version 0.2
;Holesize 1 = 0.915 mm
T01C0.915
;Holesize 2 = 0.966 mm
T02C0.966
;Holesize 3 = 0.970 mm
T03C0.970
;Holesize 4 = 1.200 mm
T04C1.200
;Holesize 5 = 3.501 mm
T05C3.501
%
G05
G90
T01
X014525Y-021209
X014525Y-018669
X014525Y-016129
X014525Y-013589
X014525Y-011049
X014525Y-008509
X001651Y-009779
X001651Y-012319
T02
X063986Y-005588
X064030Y-003049
T03
X010828Y-002170G85X010828Y-002170
X013368Y-002170G85X013368Y-002170
X015908Y-002170G85X015908Y-002170
X018448Y-002170G85X018448Y-002170
X020988Y-002170G85X020988Y-002170
X023528Y-002170G85X023528Y-002170
X026068Y-002170G85X026068Y-002170
X028608Y-002170G85X028608Y-002170
X031148Y-002170G85X031148Y-002170
X033688Y-002170G85X033688Y-002170
X036228Y-002170G85X036228Y-002170
X038768Y-002170G85X038768Y-002170
X041308Y-002170G85X041308Y-002170
X043848Y-002170G85X043848Y-002170
X046398Y-002170G85X046398Y-002170
X048928Y-002170G85X048928Y-002170
X051468Y-002170G85X051468Y-002170
X054008Y-002170G85X054008Y-002170
X056548Y-002170G85X056548Y-002170
X010828Y-004710G85X010828Y-004710
X013368Y-004710G85X013368Y-004710
X015908Y-004710G85X015908Y-004710
X018448Y-004710G85X018448Y-004710
X020988Y-004710G85X020988Y-004710
X023528Y-004710G85X023528Y-004710
X026068Y-004710G85X026068Y-004710
X028608Y-004710G85X028608Y-004710
X031148Y-004710G85X031148Y-004710
X033688Y-004710G85X033688Y-004710
X036228Y-004710G85X036228Y-004710
X038768Y-004710G85X038768Y-004710
X041308Y-004710G85X041308Y-004710
X043848Y-004710G85X043848Y-004710
X046388Y-004710G85X046388Y-004710
X048928Y-004710G85X048928Y-004710
X051468Y-004710G85X051468Y-004710
X054008Y-004710G85X054008Y-004710
X056548Y-004710G85X056548Y-004710
X008288Y-002170G85X008288Y-002170
X008288Y-004710G85X008288Y-004710
T04
X039116Y-028194
X041656Y-028194
X044196Y-028194
X046736Y-028194
X049276Y-028194
X051816Y-028194
X054356Y-028194
X056896Y-028194
X008509Y-027940
X011049Y-027940
X013589Y-027940
X016129Y-027940
X018669Y-027940
X021209Y-027940
X023749Y-027940
X026289Y-027940
X028829Y-027940
X031369Y-027940
X045816Y-018923
X043276Y-018923
X045816Y-016383
X043276Y-016383
X045816Y-013843
X043276Y-013843
X045816Y-011303
X043276Y-011303
T05
X061626Y-019913
X061626Y-010313
M30
