M48
METRIC,LZ,000.000
;FILE_FORMAT=3:3
;TYPE=PLATED
;Layer: PTH_Through
;EasyEDA v6.5.23, 2025-04-20 18:15:51
;2b0ee3c3499d41c98384b79ec2d58562,f9be1a6569124c8bb78035afb8aa2461,10
;Gerber Generator version 0.2
;Holesize 1 = 0.600 mm
T01C0.600
;Holesize 2 = 0.889 mm
T02C0.889
;Holesize 3 = 0.966 mm
T03C0.966
;Holesize 4 = 0.970 mm
T04C0.970
;Holesize 5 = 1.021 mm
T05C1.021
;Holesize 6 = 1.200 mm
T06C1.200
;Holesize 7 = 1.501 mm
T07C1.501
;Holesize 8 = 3.501 mm
T08C3.501
%
G05
G90
T01
X005061Y-014718G85X005861Y-014718
X005061Y-023368G85X005861Y-023368
X001261Y-014718G85X002061Y-014718
X001261Y-023368G85X002061Y-023368
T02
X001270Y-011176
X001270Y-008636
T03
X063986Y-016256
X064030Y-013716
T04
X010828Y-002170G85X010828Y-002170
X023528Y-002170G85X023528Y-002170
X028608Y-002170G85X028608Y-002170
X031148Y-002170G85X031148Y-002170
X033688Y-002170G85X033688Y-002170
X036228Y-002170G85X036228Y-002170
X043848Y-002170G85X043848Y-002170
X048928Y-002170G85X048928Y-002170
X051468Y-002170G85X051468Y-002170
X054008Y-002170G85X054008Y-002170
X056548Y-002170G85X056548Y-002170
X018448Y-004710G85X018448Y-004710
X023528Y-004710G85X023528Y-004710
X028608Y-004710G85X028608Y-004710
X038768Y-004710G85X038768Y-004710
X043848Y-004710G85X043848Y-004710
X046388Y-004710G85X046388Y-004710
X048928Y-004710G85X048928Y-004710
X051468Y-004710G85X051468Y-004710
X054008Y-004710G85X054008Y-004710
T05
X014605Y-008509
X014605Y-011049
X014605Y-013589
X014605Y-016129
X014605Y-018669
X014605Y-021209
T06
X039116Y-028194
X041656Y-028194
X044196Y-028194
X046736Y-028194
X049276Y-028194
X051816Y-028194
X054356Y-028194
X056896Y-028194
X008509Y-027940
X011049Y-027940
X013589Y-027940
X016129Y-027940
X018669Y-027940
X021209Y-027940
X023749Y-027940
X026289Y-027940
X028829Y-027940
X031369Y-027940
X045816Y-018923
X043276Y-018923
X045816Y-016383
X043276Y-016383
X045816Y-013843
X043276Y-013843
X045816Y-011303
X043276Y-011303
T07
X013368Y-002208G85X013368Y-002133
X015908Y-002208G85X015908Y-002133
X018448Y-002208G85X018448Y-002133
X020988Y-002208G85X020988Y-002133
X026068Y-002208G85X026068Y-002133
X038768Y-002208G85X038768Y-002133
X041308Y-002208G85X041308Y-002133
X046398Y-002208G85X046398Y-002133
X010828Y-004747G85X010828Y-004672
X013368Y-004747G85X013368Y-004672
X015908Y-004747G85X015908Y-004672
X020988Y-004747G85X020988Y-004672
X026068Y-004747G85X026068Y-004672
X031148Y-004747G85X031148Y-004672
X033688Y-004747G85X033688Y-004672
X036228Y-004747G85X036228Y-004672
X041308Y-004747G85X041308Y-004672
X056548Y-004747G85X056548Y-004672
X008288Y-002187G85X008288Y-002154
X008288Y-004747G85X008288Y-004672
T08
X061626Y-019913
X061626Y-010313
M30
