G04 Layer: BottomSilkscreenLayer*
G04 EasyEDA v6.5.23, 2025-01-15 23:58:28*
G04 61e01307cd854d7a9ca4b8b954f7b644,f9be1a6569124c8bb78035afb8aa2461,10*
G04 Gerber Generator version 0.2*
G04 Scale: 100 percent, Rotated: No, Reflected: No *
G04 Dimensions in millimeters *
G04 leading zeros omitted , absolute positions ,4 integer and 5 decimal *
%FSLAX45Y45*%
%MOMM*%

%ADD10C,0.2032*%
%ADD11C,0.2100*%
%ADD12C,0.1524*%
%ADD13C,0.2540*%

%LPD*%
D10*
X98681Y-763523D02*
G01*
X98681Y-845565D01*
X139575Y-804418D02*
G01*
X57787Y-804418D01*
D11*
X3556000Y-1569209D02*
G01*
X3537818Y-1632846D01*
X3519637Y-1569209D02*
G01*
X3537818Y-1632846D01*
X3519637Y-1569209D02*
G01*
X3501453Y-1632846D01*
X3483272Y-1569209D02*
G01*
X3501453Y-1632846D01*
X3453272Y-1569209D02*
G01*
X3453272Y-1632846D01*
X3453272Y-1596481D02*
G01*
X3448728Y-1582846D01*
X3439637Y-1573753D01*
X3430546Y-1569209D01*
X3416909Y-1569209D01*
X3364181Y-1569209D02*
G01*
X3373272Y-1573753D01*
X3382363Y-1582846D01*
X3386909Y-1596481D01*
X3386909Y-1605572D01*
X3382363Y-1619209D01*
X3373272Y-1628300D01*
X3364181Y-1632846D01*
X3350547Y-1632846D01*
X3341453Y-1628300D01*
X3332363Y-1619209D01*
X3327819Y-1605572D01*
X3327819Y-1596481D01*
X3332363Y-1582846D01*
X3341453Y-1573753D01*
X3350547Y-1569209D01*
X3364181Y-1569209D01*
X3297819Y-1569209D02*
G01*
X3297819Y-1632846D01*
X3297819Y-1587390D02*
G01*
X3284181Y-1573753D01*
X3275091Y-1569209D01*
X3261453Y-1569209D01*
X3252363Y-1573753D01*
X3247819Y-1587390D01*
X3247819Y-1632846D01*
X3163272Y-1569209D02*
G01*
X3163272Y-1641937D01*
X3167819Y-1655571D01*
X3172363Y-1660118D01*
X3181454Y-1664662D01*
X3195091Y-1664662D01*
X3204182Y-1660118D01*
X3163272Y-1582846D02*
G01*
X3172363Y-1573753D01*
X3181454Y-1569209D01*
X3195091Y-1569209D01*
X3204182Y-1573753D01*
X3213272Y-1582846D01*
X3217819Y-1596481D01*
X3217819Y-1605572D01*
X3213272Y-1619209D01*
X3204182Y-1628300D01*
X3195091Y-1632846D01*
X3181454Y-1632846D01*
X3172363Y-1628300D01*
X3163272Y-1619209D01*
X3063273Y-1569209D02*
G01*
X3045091Y-1632846D01*
X3026910Y-1569209D02*
G01*
X3045091Y-1632846D01*
X3026910Y-1569209D02*
G01*
X3008729Y-1632846D01*
X2990547Y-1569209D02*
G01*
X3008729Y-1632846D01*
X2906001Y-1569209D02*
G01*
X2906001Y-1632846D01*
X2906001Y-1582846D02*
G01*
X2915091Y-1573753D01*
X2924182Y-1569209D01*
X2937819Y-1569209D01*
X2946910Y-1573753D01*
X2956001Y-1582846D01*
X2960547Y-1596481D01*
X2960547Y-1605572D01*
X2956001Y-1619209D01*
X2946910Y-1628300D01*
X2937819Y-1632846D01*
X2924182Y-1632846D01*
X2915091Y-1628300D01*
X2906001Y-1619209D01*
X2871454Y-1569209D02*
G01*
X2844182Y-1632846D01*
X2816910Y-1569209D02*
G01*
X2844182Y-1632846D01*
X2853273Y-1651027D01*
X2862364Y-1660118D01*
X2871454Y-1664662D01*
X2876001Y-1664662D01*
X2782364Y-1537390D02*
G01*
X2782364Y-1601028D01*
X2782364Y-1623753D02*
G01*
X2786910Y-1628300D01*
X2782364Y-1632846D01*
X2777820Y-1628300D01*
X2782364Y-1623753D01*
X2743273Y-1537390D02*
G01*
X2743273Y-1601028D01*
X2743273Y-1623753D02*
G01*
X2747820Y-1628300D01*
X2743273Y-1632846D01*
X2738729Y-1628300D01*
X2743273Y-1623753D01*
X2704183Y-1537390D02*
G01*
X2704183Y-1601028D01*
X2704183Y-1623753D02*
G01*
X2708729Y-1628300D01*
X2704183Y-1632846D01*
X2699638Y-1628300D01*
X2704183Y-1623753D01*
D12*
X620521Y-1908520D02*
G01*
X630936Y-1918934D01*
X636015Y-1934428D01*
X636015Y-1955256D01*
X630936Y-1970750D01*
X620521Y-1981164D01*
X610107Y-1981164D01*
X599694Y-1976084D01*
X594360Y-1970750D01*
X589279Y-1960336D01*
X578865Y-1929094D01*
X573786Y-1918934D01*
X568452Y-1913600D01*
X558037Y-1908520D01*
X542544Y-1908520D01*
X532129Y-1918934D01*
X527050Y-1934428D01*
X527050Y-1955256D01*
X532129Y-1970750D01*
X542544Y-1981164D01*
X636015Y-1874230D02*
G01*
X527050Y-1848068D01*
X636015Y-1822160D02*
G01*
X527050Y-1848068D01*
X636015Y-1822160D02*
G01*
X527050Y-1796252D01*
X636015Y-1770344D02*
G01*
X527050Y-1796252D01*
X615187Y-1736054D02*
G01*
X620521Y-1725640D01*
X636015Y-1709892D01*
X527050Y-1709892D01*
D13*
X435889Y-2385761D02*
G01*
X435889Y-1525767D01*
X-4089Y-2385761D02*
G01*
X-4089Y-1525767D01*
X435889Y-1525767D02*
G01*
X326204Y-1525767D01*
X105595Y-1525767D02*
G01*
X-4089Y-1525767D01*
X435889Y-2385761D02*
G01*
X326204Y-2385761D01*
X105595Y-2385761D02*
G01*
X-4089Y-2385761D01*
M02*
