G04 Layer: TopLayer*
G04 EasyEDA v6.5.23, 2025-01-15 23:58:28*
G04 61e01307cd854d7a9ca4b8b954f7b644,f9be1a6569124c8bb78035afb8aa2461,10*
G04 Gerber Generator version 0.2*
G04 Scale: 100 percent, Rotated: No, Reflected: No *
G04 Dimensions in millimeters *
G04 leading zeros omitted , absolute positions ,4 integer and 5 decimal *
%FSLAX45Y45*%
%MOMM*%

%AMMACRO1*21,1,$1,$2,0,0,$3*%
%ADD10C,0.2540*%
%ADD11C,1.9050*%
%ADD12MACRO1,1.539X2.0625X0.0000*%
%ADD13R,1.5390X2.0625*%
%ADD14C,1.8796*%
%ADD15C,1.6510*%
%ADD16MACRO1,1.8X1.8X0.0000*%
%ADD17C,1.8000*%
%ADD18R,1.8000X1.8000*%
%ADD19R,2.5400X1.9050*%
%ADD20O,2.54X1.905*%
%ADD21C,4.5000*%
%ADD22C,2.0000*%
%ADD23R,2.0000X2.0000*%
%ADD24C,0.6096*%

%LPD*%
D10*
X1038143Y-660400D02*
G01*
X952500Y-574756D01*
X952500Y-355600D01*
X828802Y-231902D01*
X828802Y-217017D01*
X1828800Y-829132D02*
G01*
X1660067Y-660400D01*
X1038143Y-660400D01*
X1828800Y-1329944D02*
G01*
X1828800Y-1130300D01*
X1549400Y-850900D01*
X1452371Y-850900D01*
X850900Y-2520579D02*
G01*
X850900Y-2857500D01*
X828802Y-470915D02*
G01*
X850900Y-493013D01*
X850900Y-2520579D01*
X4419600Y-2819397D02*
G01*
X4327606Y-2727403D01*
X4327606Y-1892300D01*
X4927600Y-2819400D02*
G01*
X4800600Y-2946400D01*
X4096765Y-2946400D01*
X4038600Y-2888234D01*
X4038600Y-2748534D01*
X4183125Y-2603754D01*
X4183125Y-1782571D01*
X4327652Y-1638300D01*
X1452371Y-2120900D02*
G01*
X1600200Y-2120900D01*
X1955800Y-1765300D01*
X1955800Y-1092200D01*
X1828800Y-965200D01*
X1828800Y-829055D01*
X1866900Y-2794000D02*
G01*
X2019300Y-2641600D01*
X2019300Y-685800D01*
X1955800Y-622300D01*
X1739900Y-622300D01*
X1714500Y-596900D01*
X1714500Y-342900D01*
X1590802Y-216915D01*
X2120900Y-2794000D02*
G01*
X2095500Y-2768600D01*
X2095500Y-685800D01*
X1968500Y-558800D01*
X1968500Y-416052D01*
X1844802Y-292354D01*
X1844802Y-216915D01*
X4673600Y-2819400D02*
G01*
X4851400Y-2641600D01*
X4851400Y-1068070D01*
X4596129Y-812800D01*
X4406900Y-812800D01*
X4203700Y-609600D01*
X4060697Y-609600D01*
X4000500Y-549402D01*
X4000500Y-330200D01*
X3887215Y-216915D01*
X3876802Y-216915D01*
X3238500Y-609600D02*
G01*
X3238500Y-394207D01*
X3187191Y-342900D01*
X2732780Y-342900D01*
X2606799Y-216915D01*
X5246649Y-2630449D02*
G01*
X4971059Y-2354859D01*
X4406900Y-2590800D02*
G01*
X4660900Y-2590800D01*
X4581606Y-1130300D02*
G01*
X4365706Y-914400D01*
X4279900Y-914400D01*
X4178300Y-812800D01*
X3708400Y-812800D01*
X3263900Y-2641600D02*
G01*
X3035300Y-2641600D01*
X2882900Y-2794000D01*
X4327652Y-1638300D02*
G01*
X4165600Y-1476247D01*
X4165600Y-965200D01*
X4087368Y-886968D01*
X3667252Y-886968D01*
X3622802Y-842518D01*
X3622802Y-470915D01*
X4581652Y-1384300D02*
G01*
X4737100Y-1228852D01*
X4737100Y-1041400D01*
X4559300Y-863600D01*
X4368800Y-863600D01*
X4165600Y-660400D01*
X3848100Y-660400D01*
X3746500Y-558800D01*
X3746500Y-127000D01*
X3708400Y-88900D01*
X2226818Y-88900D01*
X2098802Y-216915D01*
X5181600Y-2819400D02*
G01*
X4902200Y-2540000D01*
X4902200Y-1028700D01*
X4559300Y-685800D01*
X4389374Y-685800D01*
X4254500Y-550926D01*
X4254500Y-127000D01*
X4165600Y-38100D01*
X2070100Y-38100D01*
X1968500Y-139700D01*
X1968500Y-340613D01*
X2098802Y-470915D01*
X3911600Y-2819400D02*
G01*
X3721100Y-3009900D01*
X762000Y-3009900D01*
X698500Y-2946400D01*
X698500Y-2374900D01*
X749300Y-2324100D01*
X749300Y-2133600D01*
X2222500Y-2463800D02*
G01*
X2362200Y-2324100D01*
X2882900Y-2794000D02*
G01*
X2461679Y-2372766D01*
X2461679Y-2309279D01*
X2171700Y-2019300D01*
X2171700Y-878072D01*
X2578856Y-470915D01*
X2606799Y-470915D01*
X3505200Y-812800D02*
G01*
X2298700Y-812800D01*
X2222500Y-889000D01*
X2222500Y-1993900D01*
X2506979Y-2278379D01*
X2506979Y-2329179D01*
X2755900Y-2578100D01*
X3302000Y-2578100D01*
X3327400Y-2603500D01*
X3327400Y-2794000D01*
X3200400Y-2921000D01*
X977900Y-2921000D01*
X850900Y-2794000D01*
X1790700Y-1689100D02*
G01*
X1460500Y-1358900D01*
X1452496Y-1358900D01*
D11*
G01*
X850900Y-2520569D03*
G01*
X1790700Y-1689100D03*
D12*
G01*
X1828800Y-1329874D03*
D13*
G01*
X1828800Y-829132D03*
D14*
G01*
X1082802Y-217017D03*
G01*
X1336802Y-217017D03*
G01*
X1590802Y-217017D03*
G01*
X1844802Y-217017D03*
G01*
X2098802Y-217017D03*
G01*
X2352802Y-217017D03*
G01*
X2606802Y-217017D03*
G01*
X2860802Y-217017D03*
G01*
X3114802Y-217017D03*
G01*
X3368802Y-217017D03*
G01*
X3622802Y-217017D03*
G01*
X3876802Y-217017D03*
G01*
X4130802Y-217017D03*
G01*
X4384802Y-217017D03*
G01*
X4639792Y-217017D03*
G01*
X4892802Y-217017D03*
G01*
X5146802Y-217017D03*
G01*
X5400802Y-217017D03*
G01*
X5654802Y-217017D03*
G01*
X1082802Y-470992D03*
G01*
X1336802Y-470992D03*
G01*
X1590802Y-470992D03*
G01*
X1844802Y-470992D03*
G01*
X2098802Y-470992D03*
G01*
X2352802Y-470992D03*
G01*
X2606802Y-470992D03*
G01*
X2860802Y-470992D03*
G01*
X3114802Y-470992D03*
G01*
X3368802Y-470992D03*
G01*
X3622802Y-470992D03*
G01*
X3876802Y-470992D03*
G01*
X4130802Y-470992D03*
G01*
X4384802Y-470992D03*
G01*
X4638802Y-470992D03*
G01*
X4892802Y-470992D03*
G01*
X5146802Y-470992D03*
G01*
X5400802Y-470992D03*
G01*
X5654802Y-470992D03*
G01*
X828802Y-217017D03*
G01*
X828802Y-470992D03*
D15*
G01*
X6398590Y-558825D03*
G01*
X6403009Y-304876D03*
D16*
G01*
X3911602Y-2819400D03*
D17*
G01*
X4165600Y-2819400D03*
G01*
X4419600Y-2819400D03*
G01*
X4673600Y-2819400D03*
G01*
X4927600Y-2819400D03*
G01*
X5181600Y-2819400D03*
G01*
X5435600Y-2819400D03*
G01*
X5689600Y-2819400D03*
D18*
G01*
X850900Y-2794000D03*
D17*
G01*
X1104900Y-2794000D03*
G01*
X1358900Y-2794000D03*
G01*
X1612900Y-2794000D03*
G01*
X1866900Y-2794000D03*
G01*
X2120900Y-2794000D03*
G01*
X2374900Y-2794000D03*
G01*
X2628900Y-2794000D03*
G01*
X2882900Y-2794000D03*
G01*
X3136900Y-2794000D03*
D19*
G01*
X1452498Y-2120900D03*
D20*
G01*
X1452498Y-1866900D03*
G01*
X1452498Y-1612900D03*
D19*
G01*
X1452498Y-1358900D03*
D20*
G01*
X1452498Y-1104900D03*
D19*
G01*
X1452498Y-850900D03*
D21*
G01*
X6162598Y-1991309D03*
G01*
X6162598Y-1031290D03*
D22*
G01*
X4581601Y-1892300D03*
G01*
X4327601Y-1892300D03*
G01*
X4581601Y-1638300D03*
G01*
X4327601Y-1638300D03*
G01*
X4581601Y-1384300D03*
G01*
X4327601Y-1384300D03*
G01*
X4581601Y-1130300D03*
D23*
G01*
X4327601Y-1130300D03*
D11*
G01*
X165100Y-977900D03*
G01*
X165100Y-1231900D03*
D24*
G01*
X3238500Y-609600D03*
G01*
X3263900Y-2641600D03*
G01*
X4971059Y-2354859D03*
G01*
X5246649Y-2630449D03*
G01*
X4406900Y-2590800D03*
G01*
X4660900Y-2590800D03*
G01*
X3708400Y-812800D03*
G01*
X3505200Y-812800D03*
G01*
X749300Y-2133600D03*
G01*
X2222500Y-2463800D03*
G01*
X2362200Y-2324100D03*
M02*
