G04 Layer: BottomSilkscreenLayer*
G04 EasyEDA v6.5.23, 2025-04-20 18:15:51*
G04 2b0ee3c3499d41c98384b79ec2d58562,f9be1a6569124c8bb78035afb8aa2461,10*
G04 Gerber Generator version 0.2*
G04 Scale: 100 percent, Rotated: No, Reflected: No *
G04 Dimensions in millimeters *
G04 leading zeros omitted , absolute positions ,4 integer and 5 decimal *
%FSLAX45Y45*%
%MOMM*%

%ADD10C,0.2032*%
%ADD11C,0.2100*%
%ADD12C,0.1524*%
%ADD13C,0.2540*%

%LPD*%
D10*
X124081Y-1246123D02*
G01*
X124081Y-1328165D01*
X164975Y-1287018D02*
G01*
X83187Y-1287018D01*
D11*
X3556000Y-1569209D02*
G01*
X3537818Y-1632846D01*
X3519637Y-1569209D02*
G01*
X3537818Y-1632846D01*
X3519637Y-1569209D02*
G01*
X3501453Y-1632846D01*
X3483272Y-1569209D02*
G01*
X3501453Y-1632846D01*
X3453272Y-1569209D02*
G01*
X3453272Y-1632846D01*
X3453272Y-1596481D02*
G01*
X3448728Y-1582846D01*
X3439637Y-1573753D01*
X3430546Y-1569209D01*
X3416909Y-1569209D01*
X3364181Y-1569209D02*
G01*
X3373272Y-1573753D01*
X3382363Y-1582846D01*
X3386909Y-1596481D01*
X3386909Y-1605572D01*
X3382363Y-1619209D01*
X3373272Y-1628300D01*
X3364181Y-1632846D01*
X3350547Y-1632846D01*
X3341453Y-1628300D01*
X3332363Y-1619209D01*
X3327819Y-1605572D01*
X3327819Y-1596481D01*
X3332363Y-1582846D01*
X3341453Y-1573753D01*
X3350547Y-1569209D01*
X3364181Y-1569209D01*
X3297819Y-1569209D02*
G01*
X3297819Y-1632846D01*
X3297819Y-1587390D02*
G01*
X3284181Y-1573753D01*
X3275091Y-1569209D01*
X3261453Y-1569209D01*
X3252363Y-1573753D01*
X3247819Y-1587390D01*
X3247819Y-1632846D01*
X3163272Y-1569209D02*
G01*
X3163272Y-1641937D01*
X3167819Y-1655571D01*
X3172363Y-1660118D01*
X3181454Y-1664662D01*
X3195091Y-1664662D01*
X3204182Y-1660118D01*
X3163272Y-1582846D02*
G01*
X3172363Y-1573753D01*
X3181454Y-1569209D01*
X3195091Y-1569209D01*
X3204182Y-1573753D01*
X3213272Y-1582846D01*
X3217819Y-1596481D01*
X3217819Y-1605572D01*
X3213272Y-1619209D01*
X3204182Y-1628300D01*
X3195091Y-1632846D01*
X3181454Y-1632846D01*
X3172363Y-1628300D01*
X3163272Y-1619209D01*
X3063273Y-1569209D02*
G01*
X3045091Y-1632846D01*
X3026910Y-1569209D02*
G01*
X3045091Y-1632846D01*
X3026910Y-1569209D02*
G01*
X3008729Y-1632846D01*
X2990547Y-1569209D02*
G01*
X3008729Y-1632846D01*
X2906001Y-1569209D02*
G01*
X2906001Y-1632846D01*
X2906001Y-1582846D02*
G01*
X2915091Y-1573753D01*
X2924182Y-1569209D01*
X2937819Y-1569209D01*
X2946910Y-1573753D01*
X2956001Y-1582846D01*
X2960547Y-1596481D01*
X2960547Y-1605572D01*
X2956001Y-1619209D01*
X2946910Y-1628300D01*
X2937819Y-1632846D01*
X2924182Y-1632846D01*
X2915091Y-1628300D01*
X2906001Y-1619209D01*
X2871454Y-1569209D02*
G01*
X2844182Y-1632846D01*
X2816910Y-1569209D02*
G01*
X2844182Y-1632846D01*
X2853273Y-1651027D01*
X2862364Y-1660118D01*
X2871454Y-1664662D01*
X2876001Y-1664662D01*
X2782364Y-1537390D02*
G01*
X2782364Y-1601028D01*
X2782364Y-1623753D02*
G01*
X2786910Y-1628300D01*
X2782364Y-1632846D01*
X2777820Y-1628300D01*
X2782364Y-1623753D01*
X2743273Y-1537390D02*
G01*
X2743273Y-1601028D01*
X2743273Y-1623753D02*
G01*
X2747820Y-1628300D01*
X2743273Y-1632846D01*
X2738729Y-1628300D01*
X2743273Y-1623753D01*
X2704183Y-1537390D02*
G01*
X2704183Y-1601028D01*
X2704183Y-1623753D02*
G01*
X2708729Y-1628300D01*
X2704183Y-1632846D01*
X2699638Y-1628300D01*
X2704183Y-1623753D01*
D10*
X118737Y-647700D02*
G01*
X118737Y-729518D01*
D12*
X813815Y-1905000D02*
G01*
X735837Y-1905000D01*
X720344Y-1899920D01*
X709929Y-1889505D01*
X704850Y-1873757D01*
X704850Y-1863344D01*
X709929Y-1847850D01*
X720344Y-1837436D01*
X735837Y-1832355D01*
X813815Y-1832355D01*
X798321Y-1725168D02*
G01*
X808736Y-1735581D01*
X813815Y-1751329D01*
X813815Y-1771904D01*
X808736Y-1787652D01*
X798321Y-1798065D01*
X787907Y-1798065D01*
X777494Y-1792731D01*
X772160Y-1787652D01*
X767079Y-1777237D01*
X756665Y-1745995D01*
X751586Y-1735581D01*
X746252Y-1730502D01*
X735837Y-1725168D01*
X720344Y-1725168D01*
X709929Y-1735581D01*
X704850Y-1751329D01*
X704850Y-1771904D01*
X709929Y-1787652D01*
X720344Y-1798065D01*
X813815Y-1690878D02*
G01*
X704850Y-1690878D01*
X813815Y-1690878D02*
G01*
X813815Y-1644142D01*
X808736Y-1628647D01*
X803402Y-1623313D01*
X792987Y-1618234D01*
X782573Y-1618234D01*
X772160Y-1623313D01*
X767079Y-1628647D01*
X762000Y-1644142D01*
X762000Y-1690878D02*
G01*
X762000Y-1644142D01*
X756665Y-1628647D01*
X751586Y-1623313D01*
X741171Y-1618234D01*
X725423Y-1618234D01*
X715010Y-1623313D01*
X709929Y-1628647D01*
X704850Y-1644142D01*
X704850Y-1690878D01*
X792987Y-1583944D02*
G01*
X798321Y-1573529D01*
X813815Y-1558036D01*
X704850Y-1558036D01*
X394715Y-1016000D02*
G01*
X285750Y-1016000D01*
X394715Y-943355D02*
G01*
X285750Y-943355D01*
X342900Y-1016000D02*
G01*
X342900Y-943355D01*
X394715Y-898652D02*
G01*
X394715Y-841502D01*
X353060Y-872489D01*
X353060Y-856995D01*
X347979Y-846581D01*
X342900Y-841502D01*
X327152Y-836168D01*
X316737Y-836168D01*
X301244Y-841502D01*
X290829Y-851915D01*
X285750Y-867410D01*
X285750Y-882904D01*
X290829Y-898652D01*
X295910Y-903731D01*
X306323Y-909065D01*
D13*
X466089Y-2336292D02*
G01*
X466089Y-1471803D01*
X-93903Y-1471803D01*
X-93903Y-2336292D01*
X466089Y-2336292D01*
D10*
X254000Y-736600D02*
G01*
X2539Y-736600D01*
X2539Y-1244600D01*
X254000Y-1244600D01*
X254000Y-736600D01*
M02*
