G04 Layer: TopSilkscreenLayer*
G04 EasyEDA v6.5.23, 2025-01-15 23:58:28*
G04 61e01307cd854d7a9ca4b8b954f7b644,f9be1a6569124c8bb78035afb8aa2461,10*
G04 Gerber Generator version 0.2*
G04 Scale: 100 percent, Rotated: No, Reflected: No *
G04 Dimensions in millimeters *
G04 leading zeros omitted , absolute positions ,4 integer and 5 decimal *
%FSLAX45Y45*%
%MOMM*%

%ADD10C,0.2100*%
%ADD11C,0.2032*%
%ADD12C,0.1524*%
%ADD13C,0.2540*%

%LPD*%
D10*
X2791206Y-2470912D02*
G01*
X2782315Y-2475484D01*
X2773172Y-2484628D01*
X2768600Y-2498089D01*
X2768600Y-2507234D01*
X2773172Y-2520950D01*
X2782315Y-2530094D01*
X2791206Y-2534665D01*
X2804922Y-2534665D01*
X2814065Y-2530094D01*
X2823209Y-2520950D01*
X2827781Y-2507234D01*
X2827781Y-2498089D01*
X2823209Y-2484628D01*
X2814065Y-2475484D01*
X2804922Y-2470912D01*
X2791206Y-2470912D01*
X2871215Y-2439162D02*
G01*
X2871215Y-2516378D01*
X2875788Y-2530094D01*
X2884931Y-2534665D01*
X2894075Y-2534665D01*
X2857754Y-2470912D02*
G01*
X2889504Y-2470912D01*
X2937763Y-2439162D02*
G01*
X2937763Y-2516378D01*
X2942336Y-2530094D01*
X2951225Y-2534665D01*
X2960370Y-2534665D01*
X2924047Y-2470912D02*
G01*
X2955797Y-2470912D01*
X2990341Y-2498089D02*
G01*
X3044952Y-2498089D01*
X3044952Y-2489200D01*
X3040379Y-2480055D01*
X3035808Y-2475484D01*
X3026663Y-2470912D01*
X3013202Y-2470912D01*
X3004058Y-2475484D01*
X2994913Y-2484628D01*
X2990341Y-2498089D01*
X2990341Y-2507234D01*
X2994913Y-2520950D01*
X3004058Y-2530094D01*
X3013202Y-2534665D01*
X3026663Y-2534665D01*
X3035808Y-2530094D01*
X3044952Y-2520950D01*
X3074924Y-2470912D02*
G01*
X3074924Y-2534665D01*
X3074924Y-2498089D02*
G01*
X3079495Y-2484628D01*
X3088640Y-2475484D01*
X3097784Y-2470912D01*
X3111245Y-2470912D01*
X3141218Y-2470912D02*
G01*
X3159506Y-2534665D01*
X3177793Y-2470912D02*
G01*
X3159506Y-2534665D01*
X3177793Y-2470912D02*
G01*
X3195827Y-2534665D01*
X3214115Y-2470912D02*
G01*
X3195827Y-2534665D01*
X3244088Y-2470912D02*
G01*
X3244088Y-2534665D01*
X3244088Y-2498089D02*
G01*
X3248659Y-2484628D01*
X3257804Y-2475484D01*
X3266693Y-2470912D01*
X3280409Y-2470912D01*
X3310381Y-2439162D02*
G01*
X3310381Y-2534665D01*
X3355847Y-2470912D02*
G01*
X3310381Y-2516378D01*
X3328670Y-2498089D02*
G01*
X3360420Y-2534665D01*
X3440429Y-2484628D02*
G01*
X3435858Y-2475484D01*
X3422141Y-2470912D01*
X3408679Y-2470912D01*
X3394963Y-2475484D01*
X3390391Y-2484628D01*
X3394963Y-2493518D01*
X3404108Y-2498089D01*
X3426713Y-2502662D01*
X3435858Y-2507234D01*
X3440429Y-2516378D01*
X3440429Y-2520950D01*
X3435858Y-2530094D01*
X3422141Y-2534665D01*
X3408679Y-2534665D01*
X3394963Y-2530094D01*
X3390391Y-2520950D01*
X3474974Y-2511805D02*
G01*
X3470402Y-2516378D01*
X3474974Y-2520950D01*
X3479545Y-2516378D01*
X3474974Y-2511805D01*
X3564127Y-2484628D02*
G01*
X3554984Y-2475484D01*
X3545840Y-2470912D01*
X3532124Y-2470912D01*
X3523234Y-2475484D01*
X3514090Y-2484628D01*
X3509518Y-2498089D01*
X3509518Y-2507234D01*
X3514090Y-2520950D01*
X3523234Y-2530094D01*
X3532124Y-2534665D01*
X3545840Y-2534665D01*
X3554984Y-2530094D01*
X3564127Y-2520950D01*
X3616706Y-2470912D02*
G01*
X3607561Y-2475484D01*
X3598672Y-2484628D01*
X3594100Y-2498089D01*
X3594100Y-2507234D01*
X3598672Y-2520950D01*
X3607561Y-2530094D01*
X3616706Y-2534665D01*
X3630422Y-2534665D01*
X3639565Y-2530094D01*
X3648709Y-2520950D01*
X3653027Y-2507234D01*
X3653027Y-2498089D01*
X3648709Y-2484628D01*
X3639565Y-2475484D01*
X3630422Y-2470912D01*
X3616706Y-2470912D01*
X2768600Y-2318512D02*
G01*
X2768600Y-2414015D01*
X2768600Y-2332228D02*
G01*
X2777743Y-2323084D01*
X2786888Y-2318512D01*
X2800350Y-2318512D01*
X2809493Y-2323084D01*
X2818638Y-2332228D01*
X2823209Y-2345689D01*
X2823209Y-2354834D01*
X2818638Y-2368550D01*
X2809493Y-2377694D01*
X2800350Y-2382265D01*
X2786888Y-2382265D01*
X2777743Y-2377694D01*
X2768600Y-2368550D01*
X2853181Y-2318512D02*
G01*
X2871215Y-2382265D01*
X2889504Y-2318512D02*
G01*
X2871215Y-2382265D01*
X2889504Y-2318512D02*
G01*
X2907791Y-2382265D01*
X2925825Y-2318512D02*
G01*
X2907791Y-2382265D01*
X2955797Y-2318512D02*
G01*
X2955797Y-2382265D01*
X2955797Y-2336800D02*
G01*
X2969513Y-2323084D01*
X2978658Y-2318512D01*
X2992120Y-2318512D01*
X3001263Y-2323084D01*
X3005836Y-2336800D01*
X3005836Y-2382265D01*
X3035808Y-2286762D02*
G01*
X3035808Y-2382265D01*
X3035808Y-2336800D02*
G01*
X3049524Y-2323084D01*
X3058668Y-2318512D01*
X3072129Y-2318512D01*
X3081274Y-2323084D01*
X3085845Y-2336800D01*
X3085845Y-2382265D01*
X3120390Y-2318512D02*
G01*
X3147568Y-2382265D01*
X3175000Y-2318512D02*
G01*
X3147568Y-2382265D01*
X3138677Y-2400300D01*
X3129534Y-2409444D01*
X3120390Y-2414015D01*
X3115818Y-2414015D01*
X3204972Y-2318512D02*
G01*
X3232150Y-2382265D01*
X3259581Y-2318512D02*
G01*
X3232150Y-2382265D01*
X3289554Y-2345689D02*
G01*
X3344163Y-2345689D01*
X3344163Y-2336800D01*
X3339591Y-2327655D01*
X3335020Y-2323084D01*
X3325875Y-2318512D01*
X3312159Y-2318512D01*
X3303270Y-2323084D01*
X3294125Y-2332228D01*
X3289554Y-2345689D01*
X3289554Y-2354834D01*
X3294125Y-2368550D01*
X3303270Y-2377694D01*
X3312159Y-2382265D01*
X3325875Y-2382265D01*
X3335020Y-2377694D01*
X3344163Y-2368550D01*
D11*
X2768600Y-2196084D02*
G01*
X2768600Y-2243836D01*
X2768600Y-2216657D02*
G01*
X2771902Y-2206244D01*
X2778759Y-2199386D01*
X2785618Y-2196084D01*
X2795777Y-2196084D01*
X2818384Y-2216657D02*
G01*
X2859277Y-2216657D01*
X2859277Y-2209800D01*
X2855975Y-2202942D01*
X2852420Y-2199386D01*
X2845561Y-2196084D01*
X2835402Y-2196084D01*
X2828543Y-2199386D01*
X2821686Y-2206244D01*
X2818384Y-2216657D01*
X2818384Y-2223262D01*
X2821686Y-2233676D01*
X2828543Y-2240279D01*
X2835402Y-2243836D01*
X2845561Y-2243836D01*
X2852420Y-2240279D01*
X2859277Y-2233676D01*
X2881884Y-2196084D02*
G01*
X2902204Y-2243836D01*
X2922777Y-2196084D02*
G01*
X2902204Y-2243836D01*
X2948686Y-2226818D02*
G01*
X2945129Y-2230120D01*
X2948686Y-2233676D01*
X2951988Y-2230120D01*
X2948686Y-2226818D01*
X3061208Y-2172207D02*
G01*
X3026918Y-2219960D01*
X3078225Y-2219960D01*
X3061208Y-2172207D02*
G01*
X3061208Y-2243836D01*
X3104134Y-2226818D02*
G01*
X3100577Y-2230120D01*
X3104134Y-2233676D01*
X3107436Y-2230120D01*
X3104134Y-2226818D01*
X3130041Y-2185923D02*
G01*
X3136900Y-2182368D01*
X3147059Y-2172207D01*
X3147059Y-2243836D01*
D10*
X791971Y-2349754D02*
G01*
X816863Y-2349754D01*
X803402Y-2368042D01*
X810005Y-2368042D01*
X814578Y-2370328D01*
X816863Y-2372613D01*
X819150Y-2379471D01*
X819150Y-2384044D01*
X816863Y-2390647D01*
X812292Y-2395220D01*
X805687Y-2397505D01*
X798829Y-2397505D01*
X791971Y-2395220D01*
X789686Y-2392934D01*
X787400Y-2388362D01*
X834136Y-2365755D02*
G01*
X847852Y-2397505D01*
X861568Y-2365755D02*
G01*
X847852Y-2397505D01*
X881126Y-2349754D02*
G01*
X906018Y-2349754D01*
X892302Y-2368042D01*
X899160Y-2368042D01*
X903731Y-2370328D01*
X906018Y-2372613D01*
X908304Y-2379471D01*
X908304Y-2384044D01*
X906018Y-2390647D01*
X901445Y-2395220D01*
X894587Y-2397505D01*
X887729Y-2397505D01*
X881126Y-2395220D01*
X878839Y-2392934D01*
X876554Y-2388362D01*
X5892800Y-2927095D02*
G01*
X5901943Y-2922523D01*
X5915406Y-2909062D01*
X5915406Y-3004565D01*
X3680206Y-2896362D02*
G01*
X3666743Y-2900934D01*
X3662172Y-2909823D01*
X3662172Y-2918968D01*
X3666743Y-2928112D01*
X3675888Y-2932684D01*
X3693922Y-2937255D01*
X3707638Y-2941828D01*
X3716781Y-2950718D01*
X3721354Y-2959862D01*
X3721354Y-2973578D01*
X3716781Y-2982721D01*
X3712209Y-2987294D01*
X3698493Y-2991865D01*
X3680206Y-2991865D01*
X3666743Y-2987294D01*
X3662172Y-2982721D01*
X3657600Y-2973578D01*
X3657600Y-2959862D01*
X3662172Y-2950718D01*
X3671315Y-2941828D01*
X3684777Y-2937255D01*
X3703065Y-2932684D01*
X3712209Y-2928112D01*
X3716781Y-2918968D01*
X3716781Y-2909823D01*
X3712209Y-2900934D01*
X3698493Y-2896362D01*
X3680206Y-2896362D01*
X3373881Y-2928112D02*
G01*
X3369309Y-2941828D01*
X3360165Y-2950718D01*
X3346450Y-2955289D01*
X3341877Y-2955289D01*
X3328415Y-2950718D01*
X3319272Y-2941828D01*
X3314700Y-2928112D01*
X3314700Y-2923539D01*
X3319272Y-2909823D01*
X3328415Y-2900934D01*
X3341877Y-2896362D01*
X3346450Y-2896362D01*
X3360165Y-2900934D01*
X3369309Y-2909823D01*
X3373881Y-2928112D01*
X3373881Y-2950718D01*
X3369309Y-2973578D01*
X3360165Y-2987294D01*
X3346450Y-2991865D01*
X3337306Y-2991865D01*
X3323843Y-2987294D01*
X3319272Y-2978150D01*
X546100Y-2901695D02*
G01*
X555244Y-2897123D01*
X568705Y-2883662D01*
X568705Y-2979165D01*
X621537Y-2883662D02*
G01*
X607821Y-2888234D01*
X603250Y-2897123D01*
X603250Y-2906268D01*
X607821Y-2915412D01*
X616965Y-2919984D01*
X635254Y-2924555D01*
X648715Y-2929128D01*
X657860Y-2938018D01*
X662431Y-2947162D01*
X662431Y-2960878D01*
X657860Y-2970021D01*
X653287Y-2974594D01*
X639826Y-2979165D01*
X621537Y-2979165D01*
X607821Y-2974594D01*
X603250Y-2970021D01*
X598931Y-2960878D01*
X598931Y-2947162D01*
X603250Y-2938018D01*
X612394Y-2929128D01*
X626110Y-2924555D01*
X644397Y-2919984D01*
X653287Y-2915412D01*
X657860Y-2906268D01*
X657860Y-2897123D01*
X653287Y-2888234D01*
X639826Y-2883662D01*
X621537Y-2883662D01*
X1930400Y-1663954D02*
G01*
X1930400Y-1711705D01*
X1930400Y-1663954D02*
G01*
X1950974Y-1663954D01*
X1957577Y-1666239D01*
X1959863Y-1668526D01*
X1962150Y-1673097D01*
X1962150Y-1677670D01*
X1959863Y-1682242D01*
X1957577Y-1684528D01*
X1950974Y-1686813D01*
X1930400Y-1686813D02*
G01*
X1950974Y-1686813D01*
X1957577Y-1689100D01*
X1959863Y-1691386D01*
X1962150Y-1695957D01*
X1962150Y-1702562D01*
X1959863Y-1707134D01*
X1957577Y-1709420D01*
X1950974Y-1711705D01*
X1930400Y-1711705D01*
X1997709Y-1670812D02*
G01*
X1997709Y-1711705D01*
X1977136Y-1691386D02*
G01*
X2018029Y-1691386D01*
X5270500Y-1551686D02*
G01*
X5311393Y-1551686D01*
X5361431Y-1531112D02*
G01*
X5397754Y-1551686D01*
X5361431Y-1572005D01*
X1837944Y-1071371D02*
G01*
X1833371Y-1066800D01*
X1828800Y-1071371D01*
X1833371Y-1075944D01*
X1837944Y-1071371D01*
X1806194Y-1071371D02*
G01*
X1801621Y-1066800D01*
X1797050Y-1071371D01*
X1801621Y-1075944D01*
X1806194Y-1071371D01*
X1878837Y-1105915D02*
G01*
X1783334Y-1105915D01*
X1878837Y-1105915D02*
G01*
X1878837Y-1146810D01*
X1874265Y-1160526D01*
X1869694Y-1165097D01*
X1860804Y-1169415D01*
X1847087Y-1169415D01*
X1837944Y-1165097D01*
X1833371Y-1160526D01*
X1828800Y-1146810D01*
X1828800Y-1105915D01*
D12*
X3225800Y145287D02*
G01*
X3236213Y150621D01*
X3251708Y166115D01*
X3251708Y57150D01*
X5963140Y-570852D02*
G01*
X5961235Y-680057D01*
X5997425Y-571451D02*
G01*
X5995517Y-680653D01*
X5997425Y-571451D02*
G01*
X6044153Y-572267D01*
X6059553Y-577870D01*
X6064796Y-583044D01*
X6069693Y-593544D01*
X6069512Y-603956D01*
X6064252Y-614281D01*
X6058829Y-619267D01*
X6043244Y-624329D01*
X5996515Y-623514D01*
X6032832Y-624146D02*
G01*
X6068151Y-681923D01*
X4737100Y-3885184D02*
G01*
X4737100Y-3994150D01*
X4809743Y-3885184D02*
G01*
X4809743Y-3994150D01*
X4737100Y-3937000D02*
G01*
X4809743Y-3937000D01*
X4844034Y-3906012D02*
G01*
X4854447Y-3900678D01*
X4870195Y-3885184D01*
X4870195Y-3994150D01*
X1904989Y-3859784D02*
G01*
X1904989Y-3968750D01*
X1977633Y-3859784D02*
G01*
X1977633Y-3968750D01*
X1904989Y-3911600D02*
G01*
X1977633Y-3911600D01*
X2017257Y-3885692D02*
G01*
X2017257Y-3880612D01*
X2022337Y-3870197D01*
X2027671Y-3864863D01*
X2038085Y-3859784D01*
X2058659Y-3859784D01*
X2069073Y-3864863D01*
X2074407Y-3870197D01*
X2079487Y-3880612D01*
X2079487Y-3891026D01*
X2074407Y-3901439D01*
X2063993Y-3916934D01*
X2011923Y-3968750D01*
X2084821Y-3968750D01*
X1066797Y-2081784D02*
G01*
X1066797Y-2159762D01*
X1071877Y-2175255D01*
X1082291Y-2185670D01*
X1098039Y-2190750D01*
X1108453Y-2190750D01*
X1123947Y-2185670D01*
X1134361Y-2175255D01*
X1139441Y-2159762D01*
X1139441Y-2081784D01*
X1184145Y-2081784D02*
G01*
X1241295Y-2081784D01*
X1210307Y-2123439D01*
X1225801Y-2123439D01*
X1236215Y-2128520D01*
X1241295Y-2133600D01*
X1246629Y-2149347D01*
X1246629Y-2159762D01*
X1241295Y-2175255D01*
X1230881Y-2185670D01*
X1215387Y-2190750D01*
X1199893Y-2190750D01*
X1184145Y-2185670D01*
X1179065Y-2180589D01*
X1173731Y-2170176D01*
D11*
X-2325342Y-857143D02*
G01*
X-2334486Y-838601D01*
X-2353028Y-820313D01*
X-2371316Y-810915D01*
X-2408400Y-810915D01*
X-2426942Y-820313D01*
X-2445230Y-838601D01*
X-2454628Y-857143D01*
X-2463772Y-884829D01*
X-2463772Y-931057D01*
X-2454628Y-958743D01*
X-2445230Y-977285D01*
X-2426942Y-995573D01*
X-2408400Y-1004971D01*
X-2371316Y-1004971D01*
X-2353028Y-995573D01*
X-2334486Y-977285D01*
X-2325342Y-958743D01*
X-2264382Y-810915D02*
G01*
X-2264382Y-1004971D01*
X-2264382Y-912515D02*
G01*
X-2236696Y-884829D01*
X-2218154Y-875685D01*
X-2190468Y-875685D01*
X-2171926Y-884829D01*
X-2162782Y-912515D01*
X-2162782Y-1004971D01*
X-1990824Y-875685D02*
G01*
X-1990824Y-1004971D01*
X-1990824Y-903371D02*
G01*
X-2009366Y-884829D01*
X-2027908Y-875685D01*
X-2055594Y-875685D01*
X-2074136Y-884829D01*
X-2092424Y-903371D01*
X-2101822Y-931057D01*
X-2101822Y-949599D01*
X-2092424Y-977285D01*
X-2074136Y-995573D01*
X-2055594Y-1004971D01*
X-2027908Y-1004971D01*
X-2009366Y-995573D01*
X-1990824Y-977285D01*
X-1929864Y-875685D02*
G01*
X-1929864Y-1004971D01*
X-1929864Y-931057D02*
G01*
X-1920720Y-903371D01*
X-1902178Y-884829D01*
X-1883636Y-875685D01*
X-1855950Y-875685D01*
X-1684246Y-875685D02*
G01*
X-1684246Y-1023513D01*
X-1693390Y-1051199D01*
X-1702788Y-1060343D01*
X-1721076Y-1069487D01*
X-1749016Y-1069487D01*
X-1767304Y-1060343D01*
X-1684246Y-903371D02*
G01*
X-1702788Y-884829D01*
X-1721076Y-875685D01*
X-1749016Y-875685D01*
X-1767304Y-884829D01*
X-1785846Y-903371D01*
X-1794990Y-931057D01*
X-1794990Y-949599D01*
X-1785846Y-977285D01*
X-1767304Y-995573D01*
X-1749016Y-1004971D01*
X-1721076Y-1004971D01*
X-1702788Y-995573D01*
X-1684246Y-977285D01*
X-1623286Y-931057D02*
G01*
X-1512542Y-931057D01*
X-1512542Y-912515D01*
X-1521686Y-893973D01*
X-1530830Y-884829D01*
X-1549372Y-875685D01*
X-1577058Y-875685D01*
X-1595600Y-884829D01*
X-1614142Y-903371D01*
X-1623286Y-931057D01*
X-1623286Y-949599D01*
X-1614142Y-977285D01*
X-1595600Y-995573D01*
X-1577058Y-1004971D01*
X-1549372Y-1004971D01*
X-1530830Y-995573D01*
X-1512542Y-977285D01*
X-1135964Y-957648D02*
G01*
X-1135964Y-948250D01*
X-1145362Y-939106D01*
X-1154506Y-939106D01*
X-1163904Y-948250D01*
X-1173048Y-966792D01*
X-1191590Y-1013020D01*
X-1209878Y-1040706D01*
X-1228420Y-1059248D01*
X-1246962Y-1068392D01*
X-1283792Y-1068392D01*
X-1302334Y-1059248D01*
X-1311478Y-1049850D01*
X-1320876Y-1031562D01*
X-1320876Y-1013020D01*
X-1311478Y-994478D01*
X-1302334Y-985334D01*
X-1237564Y-948250D01*
X-1228420Y-939106D01*
X-1219276Y-920564D01*
X-1219276Y-902276D01*
X-1228420Y-883734D01*
X-1246962Y-874336D01*
X-1265504Y-883734D01*
X-1274648Y-902276D01*
X-1274648Y-920564D01*
X-1265504Y-948250D01*
X-1246962Y-975936D01*
X-1200734Y-1040706D01*
X-1182192Y-1059248D01*
X-1163904Y-1068392D01*
X-1145362Y-1068392D01*
X-1135964Y-1059248D01*
X-1135964Y-1049850D01*
X-2451125Y-1141242D02*
G01*
X-2451125Y-1335044D01*
X-2451125Y-1141242D02*
G01*
X-2386355Y-1141242D01*
X-2358669Y-1150386D01*
X-2340381Y-1168928D01*
X-2330983Y-1187216D01*
X-2321839Y-1215156D01*
X-2321839Y-1261130D01*
X-2330983Y-1288816D01*
X-2340381Y-1307358D01*
X-2358669Y-1325900D01*
X-2386355Y-1335044D01*
X-2451125Y-1335044D01*
X-2260879Y-1141242D02*
G01*
X-2251481Y-1150386D01*
X-2242337Y-1141242D01*
X-2251481Y-1131844D01*
X-2260879Y-1141242D01*
X-2251481Y-1205758D02*
G01*
X-2251481Y-1335044D01*
X-2079777Y-1233444D02*
G01*
X-2088921Y-1215156D01*
X-2116861Y-1205758D01*
X-2144547Y-1205758D01*
X-2172233Y-1215156D01*
X-2181377Y-1233444D01*
X-2172233Y-1251986D01*
X-2153691Y-1261130D01*
X-2107463Y-1270528D01*
X-2088921Y-1279672D01*
X-2079777Y-1298214D01*
X-2079777Y-1307358D01*
X-2088921Y-1325900D01*
X-2116861Y-1335044D01*
X-2144547Y-1335044D01*
X-2172233Y-1325900D01*
X-2181377Y-1307358D01*
X-1908073Y-1233444D02*
G01*
X-1926361Y-1215156D01*
X-1944903Y-1205758D01*
X-1972589Y-1205758D01*
X-1991131Y-1215156D01*
X-2009673Y-1233444D01*
X-2018817Y-1261130D01*
X-2018817Y-1279672D01*
X-2009673Y-1307358D01*
X-1991131Y-1325900D01*
X-1972589Y-1335044D01*
X-1944903Y-1335044D01*
X-1926361Y-1325900D01*
X-1908073Y-1307358D01*
X-1847113Y-1141242D02*
G01*
X-1847113Y-1335044D01*
X-1847113Y-1242842D02*
G01*
X-1819427Y-1215156D01*
X-1800885Y-1205758D01*
X-1773199Y-1205758D01*
X-1754657Y-1215156D01*
X-1745513Y-1242842D01*
X-1745513Y-1335044D01*
X-1573555Y-1205758D02*
G01*
X-1573555Y-1335044D01*
X-1573555Y-1233444D02*
G01*
X-1592097Y-1215156D01*
X-1610639Y-1205758D01*
X-1638325Y-1205758D01*
X-1656867Y-1215156D01*
X-1675155Y-1233444D01*
X-1684553Y-1261130D01*
X-1684553Y-1279672D01*
X-1675155Y-1307358D01*
X-1656867Y-1325900D01*
X-1638325Y-1335044D01*
X-1610639Y-1335044D01*
X-1592097Y-1325900D01*
X-1573555Y-1307358D01*
X-1512595Y-1205758D02*
G01*
X-1512595Y-1335044D01*
X-1512595Y-1261130D02*
G01*
X-1503451Y-1233444D01*
X-1484909Y-1215156D01*
X-1466621Y-1205758D01*
X-1438681Y-1205758D01*
X-1266977Y-1205758D02*
G01*
X-1266977Y-1353586D01*
X-1276121Y-1381272D01*
X-1285519Y-1390416D01*
X-1304061Y-1399814D01*
X-1331747Y-1399814D01*
X-1350035Y-1390416D01*
X-1266977Y-1233444D02*
G01*
X-1285519Y-1215156D01*
X-1304061Y-1205758D01*
X-1331747Y-1205758D01*
X-1350035Y-1215156D01*
X-1368577Y-1233444D01*
X-1377721Y-1261130D01*
X-1377721Y-1279672D01*
X-1368577Y-1307358D01*
X-1350035Y-1325900D01*
X-1331747Y-1335044D01*
X-1304061Y-1335044D01*
X-1285519Y-1325900D01*
X-1266977Y-1307358D01*
X-1206017Y-1261130D02*
G01*
X-1095273Y-1261130D01*
X-1095273Y-1242842D01*
X-1104417Y-1224300D01*
X-1113561Y-1215156D01*
X-1132103Y-1205758D01*
X-1159789Y-1205758D01*
X-1178331Y-1215156D01*
X-1196873Y-1233444D01*
X-1206017Y-1261130D01*
X-1206017Y-1279672D01*
X-1196873Y-1307358D01*
X-1178331Y-1325900D01*
X-1159789Y-1335044D01*
X-1132103Y-1335044D01*
X-1113561Y-1325900D01*
X-1095273Y-1307358D01*
X-2149805Y-1445996D02*
G01*
X-2242261Y-1445996D01*
X-2251405Y-1529054D01*
X-2242261Y-1519910D01*
X-2214321Y-1510512D01*
X-2186635Y-1510512D01*
X-2158949Y-1519910D01*
X-2140661Y-1538198D01*
X-2131263Y-1566138D01*
X-2131263Y-1584426D01*
X-2140661Y-1612112D01*
X-2158949Y-1630654D01*
X-2186635Y-1639798D01*
X-2214321Y-1639798D01*
X-2242261Y-1630654D01*
X-2251405Y-1621510D01*
X-2260549Y-1602968D01*
X-2070303Y-1445996D02*
G01*
X-1996389Y-1639798D01*
X-1922475Y-1445996D02*
G01*
X-1996389Y-1639798D01*
X-1710131Y-1492224D02*
G01*
X-1710131Y-1482826D01*
X-1700987Y-1464538D01*
X-1691589Y-1455140D01*
X-1673301Y-1445996D01*
X-1636217Y-1445996D01*
X-1617675Y-1455140D01*
X-1608531Y-1464538D01*
X-1599387Y-1482826D01*
X-1599387Y-1501368D01*
X-1608531Y-1519910D01*
X-1627073Y-1547596D01*
X-1719275Y-1639798D01*
X-1589989Y-1639798D01*
X-1455115Y-1445996D02*
G01*
X-1529029Y-1639798D01*
X-1455115Y-1445996D02*
G01*
X-1381201Y-1639798D01*
X-1501343Y-1575282D02*
G01*
X-1409141Y-1575282D01*
D12*
X6937603Y-2416606D02*
G01*
X6937603Y-2338628D01*
X6932523Y-2323134D01*
X6922109Y-2312720D01*
X6906361Y-2307640D01*
X6895947Y-2307640D01*
X6880453Y-2312720D01*
X6870039Y-2323134D01*
X6864959Y-2338628D01*
X6864959Y-2416606D01*
X6768185Y-2416606D02*
G01*
X6820255Y-2416606D01*
X6825335Y-2369870D01*
X6820255Y-2374950D01*
X6804507Y-2380284D01*
X6789013Y-2380284D01*
X6773519Y-2374950D01*
X6763105Y-2364790D01*
X6757771Y-2349042D01*
X6757771Y-2338628D01*
X6763105Y-2323134D01*
X6773519Y-2312720D01*
X6789013Y-2307640D01*
X6804507Y-2307640D01*
X6820255Y-2312720D01*
X6825335Y-2317800D01*
X6830669Y-2328214D01*
X2121915Y-1079500D02*
G01*
X2012950Y-1079500D01*
X2121915Y-1079500D02*
G01*
X2121915Y-1115821D01*
X2116836Y-1131570D01*
X2106422Y-1141729D01*
X2096008Y-1147063D01*
X2080259Y-1152144D01*
X2054352Y-1152144D01*
X2038858Y-1147063D01*
X2028443Y-1141729D01*
X2018029Y-1131570D01*
X2012950Y-1115821D01*
X2012950Y-1079500D01*
X2101088Y-1186434D02*
G01*
X2106422Y-1196847D01*
X2121915Y-1212595D01*
X2012950Y-1212595D01*
G36*
X1921002Y-776782D02*
G01*
X1921002Y-822502D01*
X1972056Y-822502D01*
X1972056Y-776782D01*
G37*
G36*
X1685543Y-776782D02*
G01*
X1685543Y-822502D01*
X1736598Y-822502D01*
X1736598Y-776782D01*
G37*
D13*
X6534670Y-211157D02*
G01*
X6274711Y-206618D01*
X3784600Y-2969399D02*
G01*
X5816597Y-2969399D01*
X5816600Y-2969399D02*
G01*
X5816597Y-3223399D01*
X5816597Y-3223399D02*
G01*
X3784600Y-3223399D01*
X3784602Y-3223399D02*
G01*
X3784602Y-2969399D01*
X3835402Y-3223399D02*
G01*
X3835402Y-3823398D01*
X3987802Y-3223399D02*
G01*
X3987802Y-3823398D01*
X3835656Y-3823462D02*
G01*
X3986603Y-3823398D01*
X4089234Y-3221969D02*
G01*
X4089234Y-3821971D01*
X4241634Y-3221969D02*
G01*
X4241634Y-3821971D01*
X4089491Y-3822031D02*
G01*
X4240436Y-3821971D01*
X4343445Y-3225002D02*
G01*
X4343445Y-3825001D01*
X4495845Y-3225002D02*
G01*
X4495845Y-3825001D01*
X4343699Y-3825064D02*
G01*
X4494646Y-3825001D01*
X4597278Y-3223572D02*
G01*
X4597278Y-3823573D01*
X4749678Y-3223572D02*
G01*
X4749678Y-3823573D01*
X4597534Y-3823634D02*
G01*
X4748479Y-3823573D01*
X4843962Y-3225187D02*
G01*
X4843962Y-3825184D01*
X4996362Y-3225187D02*
G01*
X4996362Y-3825184D01*
X4844216Y-3825247D02*
G01*
X4995163Y-3825184D01*
X5097795Y-3223755D02*
G01*
X5097795Y-3823756D01*
X5250195Y-3223755D02*
G01*
X5250195Y-3823756D01*
X5098051Y-3823817D02*
G01*
X5248996Y-3823756D01*
X5358955Y-3225352D02*
G01*
X5358955Y-3825351D01*
X5511355Y-3225352D02*
G01*
X5511355Y-3825351D01*
X5359212Y-3825415D02*
G01*
X5510156Y-3825351D01*
X5612790Y-3223920D02*
G01*
X5612790Y-3823924D01*
X5765190Y-3223920D02*
G01*
X5765190Y-3823924D01*
X5613046Y-3823982D02*
G01*
X5763991Y-3823924D01*
X924227Y-3796675D02*
G01*
X773285Y-3796614D01*
X772088Y-3196612D02*
G01*
X772088Y-3796614D01*
X924488Y-3196612D02*
G01*
X924488Y-3796614D01*
X1184371Y-3800241D02*
G01*
X1033429Y-3800180D01*
X1032233Y-3200179D02*
G01*
X1032233Y-3800180D01*
X1184633Y-3200179D02*
G01*
X1184633Y-3800180D01*
X1434012Y-3797419D02*
G01*
X1283063Y-3797358D01*
X1281866Y-3197357D02*
G01*
X1281866Y-3797358D01*
X1434266Y-3197357D02*
G01*
X1434266Y-3797358D01*
X1687845Y-3798851D02*
G01*
X1536903Y-3798790D01*
X1535699Y-3198789D02*
G01*
X1535699Y-3798790D01*
X1688099Y-3198789D02*
G01*
X1688099Y-3798790D01*
X1949008Y-3797251D02*
G01*
X1798058Y-3797190D01*
X1796862Y-3197189D02*
G01*
X1796862Y-3797190D01*
X1949262Y-3197189D02*
G01*
X1949262Y-3797190D01*
X2202840Y-3798684D02*
G01*
X2051890Y-3798623D01*
X2050694Y-3198621D02*
G01*
X2050694Y-3798623D01*
X2203094Y-3198621D02*
G01*
X2203094Y-3798623D01*
X2449522Y-3797073D02*
G01*
X2298580Y-3797010D01*
X2297376Y-3197011D02*
G01*
X2297376Y-3797010D01*
X2449776Y-3197011D02*
G01*
X2449776Y-3797010D01*
X2703355Y-3798498D02*
G01*
X2552412Y-3798437D01*
X2551209Y-3198436D02*
G01*
X2551209Y-3798437D01*
X2703609Y-3198436D02*
G01*
X2703609Y-3798437D01*
X2957565Y-3795466D02*
G01*
X2806623Y-3795405D01*
X2805419Y-3195403D02*
G01*
X2805419Y-3795405D01*
X2957819Y-3195403D02*
G01*
X2957819Y-3795405D01*
X3211398Y-3796898D02*
G01*
X3060456Y-3796837D01*
X3059254Y-3196836D02*
G01*
X3059254Y-3796837D01*
X3211654Y-3196836D02*
G01*
X3211654Y-3796837D01*
X3262454Y-3196836D02*
G01*
X3262454Y-2942836D01*
X722459Y-3196836D02*
G01*
X3262459Y-3196836D01*
X722459Y-2942836D02*
G01*
X722459Y-3196836D01*
X3262459Y-2942836D02*
G01*
X722459Y-2942836D01*
X1617497Y-2285898D02*
G01*
X-882497Y-2285898D01*
X-882497Y-685901D01*
X1617497Y-685901D01*
X1617497Y-2285898D01*
X-82499Y-2285898D02*
G01*
X-582498Y-2285898D01*
X-582498Y-2035886D01*
X-82499Y-2035886D01*
X-82499Y-2285898D01*
X-232511Y-2385898D02*
G01*
X-432511Y-2385898D01*
X-432511Y-2285898D01*
X-232511Y-2285898D01*
X-232511Y-2385898D01*
X7175502Y-1511300D02*
G01*
X7277102Y-1257300D01*
X7391402Y-1765300D01*
X7531102Y-1257300D01*
X7645402Y-1765300D01*
X7785102Y-1270000D01*
X7912102Y-1765300D01*
X8039102Y-1257300D01*
X8166102Y-1765300D01*
X8293102Y-1257300D01*
X8407402Y-1765300D01*
X8547102Y-1257300D01*
X8661402Y-1765300D01*
X8801102Y-1257300D01*
X8915402Y-1765300D01*
X9055102Y-1257300D01*
X9182102Y-1765300D01*
X9309102Y-1257300D01*
X9436102Y-1765300D01*
X9563102Y-1257300D01*
X9702802Y-1536700D01*
X7172401Y-2260600D02*
G01*
X4149801Y-2260600D01*
X4149801Y-736600D01*
X7172401Y-736600D01*
X7172401Y-2260600D01*
D12*
X1964420Y-814880D02*
G01*
X1964420Y-1344119D01*
X1693179Y-814880D02*
G01*
X1693179Y-1344119D01*
X1964420Y-952571D02*
G01*
X1693179Y-952571D01*
X1964420Y-1344119D02*
G01*
X1926069Y-1344119D01*
X1693179Y-1344119D02*
G01*
X1731530Y-1344119D01*
D13*
G75*
G01*
X6266487Y-209306D02*
G03*
X6542796Y-214130I134311J-222623D01*
M02*
