G04 Layer: BottomLayer*
G04 EasyEDA v6.5.23, 2025-04-20 18:15:51*
G04 2b0ee3c3499d41c98384b79ec2d58562,f9be1a6569124c8bb78035afb8aa2461,10*
G04 Gerber Generator version 0.2*
G04 Scale: 100 percent, Rotated: No, Reflected: No *
G04 Dimensions in millimeters *
G04 leading zeros omitted , absolute positions ,4 integer and 5 decimal *
%FSLAX45Y45*%
%MOMM*%

%AMMACRO1*21,1,$1,$2,0,0,$3*%
%ADD10C,0.2540*%
%ADD11C,0.5000*%
%ADD12MACRO1,0.8X1.4X90.0000*%
%ADD13O,2.1999956000000003X1.1999976*%
%ADD14MACRO1,1.5748X1.5748X0.0000*%
%ADD15C,1.5748*%
%ADD16C,1.5750*%
%ADD17C,1.6510*%
%ADD18C,1.8796*%
%ADD19MACRO1,1.8X1.8X0.0000*%
%ADD20C,1.8000*%
%ADD21R,1.8000X1.8000*%
%ADD22C,4.5000*%
%ADD23C,2.0000*%
%ADD24R,2.0000X2.0000*%
%ADD25C,0.6096*%
%ADD26C,0.6200*%
%ADD27C,0.0126*%

%LPD*%
G36*
X4511802Y-453186D02*
G01*
X4507534Y-452272D01*
X4504080Y-449630D01*
X4502048Y-445820D01*
X4497832Y-431139D01*
X4492091Y-417576D01*
X4484725Y-404774D01*
X4475835Y-392988D01*
X4465574Y-382422D01*
X4454042Y-373176D01*
X4441494Y-365404D01*
X4428083Y-359206D01*
X4414062Y-354736D01*
X4399534Y-352044D01*
X4384802Y-351129D01*
X4370070Y-352044D01*
X4355541Y-354736D01*
X4341520Y-359206D01*
X4328109Y-365404D01*
X4315561Y-373176D01*
X4309618Y-377901D01*
X4306316Y-379679D01*
X4302556Y-380136D01*
X4298899Y-379171D01*
X4295851Y-376936D01*
X4293819Y-373735D01*
X4293108Y-369976D01*
X4293108Y-318312D01*
X4294073Y-314045D01*
X4296765Y-310540D01*
X4300677Y-308508D01*
X4305096Y-308356D01*
X4309160Y-310032D01*
X4321708Y-318922D01*
X4331462Y-324154D01*
X4331462Y-270357D01*
X4303268Y-270357D01*
X4299356Y-269595D01*
X4296105Y-267360D01*
X4293870Y-264109D01*
X4293108Y-260197D01*
X4293108Y-173837D01*
X4293870Y-169926D01*
X4296105Y-166674D01*
X4299356Y-164439D01*
X4303268Y-163677D01*
X4331462Y-163677D01*
X4331462Y-137668D01*
X4332224Y-133756D01*
X4334459Y-130505D01*
X4337710Y-128270D01*
X4341622Y-127508D01*
X4427982Y-127508D01*
X4431893Y-128270D01*
X4435144Y-130505D01*
X4437380Y-133756D01*
X4438142Y-137668D01*
X4438142Y-163677D01*
X4492142Y-163677D01*
X4484725Y-150825D01*
X4479442Y-143814D01*
X4477562Y-139700D01*
X4477664Y-135229D01*
X4479645Y-131267D01*
X4483150Y-128473D01*
X4487519Y-127508D01*
X4537049Y-127508D01*
X4541418Y-128473D01*
X4544923Y-131267D01*
X4546904Y-135229D01*
X4547006Y-139700D01*
X4545177Y-143814D01*
X4539894Y-150825D01*
X4532477Y-163576D01*
X4526737Y-177190D01*
X4522724Y-191363D01*
X4520438Y-205943D01*
X4519980Y-220725D01*
X4521352Y-235407D01*
X4524502Y-249834D01*
X4529429Y-263753D01*
X4535982Y-276961D01*
X4544110Y-289255D01*
X4553762Y-300482D01*
X4564634Y-310388D01*
X4576673Y-318922D01*
X4589678Y-325932D01*
X4603445Y-331266D01*
X4614672Y-334060D01*
X4618177Y-335737D01*
X4620869Y-338632D01*
X4622190Y-342290D01*
X4622088Y-346202D01*
X4620514Y-349758D01*
X4617669Y-352450D01*
X4614062Y-353923D01*
X4609541Y-354736D01*
X4595520Y-359206D01*
X4582109Y-365404D01*
X4569561Y-373176D01*
X4558030Y-382422D01*
X4547768Y-392988D01*
X4538878Y-404774D01*
X4531512Y-417576D01*
X4525772Y-431139D01*
X4521555Y-445820D01*
X4519523Y-449630D01*
X4516069Y-452272D01*
G37*

%LPC*%
G36*
X4438142Y-324154D02*
G01*
X4447895Y-318922D01*
X4459935Y-310388D01*
X4470857Y-300482D01*
X4480458Y-289255D01*
X4488586Y-276961D01*
X4491888Y-270357D01*
X4438142Y-270357D01*
G37*

%LPD*%
G36*
X300685Y-3024073D02*
G01*
X278079Y-3023158D01*
X256743Y-3020618D01*
X235610Y-3016402D01*
X214934Y-3010509D01*
X194767Y-3003042D01*
X175209Y-2993999D01*
X156464Y-2983433D01*
X138582Y-2971495D01*
X121716Y-2958134D01*
X105918Y-2943504D01*
X91338Y-2927654D01*
X78028Y-2910738D01*
X66141Y-2892856D01*
X55626Y-2874060D01*
X46634Y-2854502D01*
X39217Y-2834284D01*
X33426Y-2813608D01*
X29260Y-2792476D01*
X26771Y-2771089D01*
X25908Y-2749296D01*
X25908Y-2389784D01*
X26771Y-2385669D01*
X29209Y-2382266D01*
X32867Y-2380132D01*
X37033Y-2379675D01*
X41046Y-2380945D01*
X44196Y-2383688D01*
X51206Y-2393035D01*
X59842Y-2401722D01*
X69646Y-2409037D01*
X80416Y-2414930D01*
X91897Y-2419197D01*
X104749Y-2421890D01*
X104749Y-2373172D01*
X36068Y-2373172D01*
X32156Y-2372360D01*
X28905Y-2370175D01*
X26670Y-2366873D01*
X25908Y-2363012D01*
X25908Y-2310587D01*
X26670Y-2306726D01*
X28905Y-2303424D01*
X32156Y-2301240D01*
X36068Y-2300427D01*
X104749Y-2300427D01*
X104749Y-2251710D01*
X91897Y-2254402D01*
X80416Y-2258669D01*
X69646Y-2264562D01*
X59842Y-2271877D01*
X51206Y-2280564D01*
X44196Y-2289911D01*
X41046Y-2292654D01*
X37033Y-2293924D01*
X32867Y-2293467D01*
X29209Y-2291334D01*
X26771Y-2287930D01*
X25908Y-2283815D01*
X25908Y-1524762D01*
X26771Y-1520698D01*
X29209Y-1517243D01*
X32867Y-1515160D01*
X37033Y-1514652D01*
X41046Y-1515922D01*
X44196Y-1518716D01*
X51206Y-1528064D01*
X59842Y-1536700D01*
X69646Y-1544066D01*
X80416Y-1549908D01*
X91897Y-1554226D01*
X104749Y-1556867D01*
X104749Y-1508150D01*
X36068Y-1508150D01*
X32156Y-1507388D01*
X28905Y-1505153D01*
X26670Y-1501902D01*
X25908Y-1497990D01*
X25908Y-1445615D01*
X26670Y-1441704D01*
X28905Y-1438402D01*
X32156Y-1436217D01*
X36068Y-1435455D01*
X104749Y-1435455D01*
X104749Y-1386738D01*
X91897Y-1389380D01*
X80416Y-1393698D01*
X69646Y-1399540D01*
X59842Y-1406906D01*
X51206Y-1415542D01*
X44196Y-1424889D01*
X41046Y-1427683D01*
X37033Y-1428953D01*
X32867Y-1428445D01*
X29209Y-1426311D01*
X26771Y-1422908D01*
X25908Y-1418793D01*
X25908Y-1230071D01*
X26619Y-1226261D01*
X28702Y-1223010D01*
X31851Y-1220774D01*
X35610Y-1219911D01*
X39420Y-1220470D01*
X42519Y-1221536D01*
X48818Y-1222248D01*
X205181Y-1222248D01*
X211480Y-1221536D01*
X216966Y-1219606D01*
X221843Y-1216558D01*
X225958Y-1212443D01*
X229006Y-1207566D01*
X230936Y-1202080D01*
X231648Y-1195781D01*
X231648Y-1178661D01*
X232410Y-1174800D01*
X234645Y-1171498D01*
X237896Y-1169263D01*
X241808Y-1168501D01*
X1193901Y-1168501D01*
X1197813Y-1169263D01*
X1201115Y-1171498D01*
X1355902Y-1326286D01*
X1357833Y-1328978D01*
X1358798Y-1332179D01*
X1358696Y-1335481D01*
X1356766Y-1345234D01*
X1355852Y-1358900D01*
X1356766Y-1372565D01*
X1359408Y-1385976D01*
X1363827Y-1398930D01*
X1369872Y-1411224D01*
X1377492Y-1422603D01*
X1386535Y-1432864D01*
X1396796Y-1441907D01*
X1408176Y-1449527D01*
X1420469Y-1455572D01*
X1433423Y-1459992D01*
X1446834Y-1462633D01*
X1460500Y-1463548D01*
X1474165Y-1462633D01*
X1487576Y-1459992D01*
X1500530Y-1455572D01*
X1512824Y-1449527D01*
X1524203Y-1441907D01*
X1534464Y-1432864D01*
X1543507Y-1422603D01*
X1551127Y-1411224D01*
X1557172Y-1398930D01*
X1561592Y-1385976D01*
X1564233Y-1372565D01*
X1565148Y-1358900D01*
X1564233Y-1345234D01*
X1561592Y-1331823D01*
X1557172Y-1318869D01*
X1551127Y-1306576D01*
X1543507Y-1295196D01*
X1534464Y-1284935D01*
X1524203Y-1275892D01*
X1512824Y-1268272D01*
X1500530Y-1262227D01*
X1487576Y-1257808D01*
X1474165Y-1255166D01*
X1460500Y-1254252D01*
X1446834Y-1255166D01*
X1437081Y-1257096D01*
X1433779Y-1257198D01*
X1430629Y-1256233D01*
X1427937Y-1254302D01*
X1255369Y-1081735D01*
X1251915Y-1078585D01*
X1248410Y-1075893D01*
X1244650Y-1073505D01*
X1240739Y-1071473D01*
X1236624Y-1069746D01*
X1232408Y-1068425D01*
X1228039Y-1067460D01*
X1223670Y-1066901D01*
X1218996Y-1066698D01*
X241808Y-1066698D01*
X237896Y-1065936D01*
X234645Y-1063701D01*
X232410Y-1060399D01*
X231648Y-1056538D01*
X231648Y-1038961D01*
X232410Y-1035100D01*
X234645Y-1031798D01*
X237896Y-1029563D01*
X241808Y-1028801D01*
X1366774Y-1028801D01*
X1370990Y-1029716D01*
X1374495Y-1032357D01*
X1376527Y-1036218D01*
X1376781Y-1040536D01*
X1375206Y-1044600D01*
X1369872Y-1052576D01*
X1366621Y-1059180D01*
X1414780Y-1059180D01*
X1414780Y-1038961D01*
X1415542Y-1035100D01*
X1417726Y-1031798D01*
X1421028Y-1029563D01*
X1424940Y-1028801D01*
X1496060Y-1028801D01*
X1499971Y-1029563D01*
X1503273Y-1031798D01*
X1505458Y-1035100D01*
X1506220Y-1038961D01*
X1506220Y-1059180D01*
X1567180Y-1059180D01*
X1571040Y-1059942D01*
X1574342Y-1062177D01*
X1622501Y-1110335D01*
X1624736Y-1113586D01*
X1625498Y-1117498D01*
X1625498Y-1473301D01*
X1624736Y-1477213D01*
X1622501Y-1480464D01*
X1556004Y-1547012D01*
X1552549Y-1549298D01*
X1548485Y-1549958D01*
X1544472Y-1548993D01*
X1541170Y-1546504D01*
X1534464Y-1538935D01*
X1524203Y-1529892D01*
X1512824Y-1522272D01*
X1500530Y-1516227D01*
X1487576Y-1511808D01*
X1474165Y-1509166D01*
X1460500Y-1508252D01*
X1446834Y-1509166D01*
X1433423Y-1511808D01*
X1420469Y-1516227D01*
X1408176Y-1522272D01*
X1396796Y-1529892D01*
X1386535Y-1538935D01*
X1377492Y-1549196D01*
X1369872Y-1560576D01*
X1363827Y-1572869D01*
X1359408Y-1585823D01*
X1356766Y-1599234D01*
X1355852Y-1612900D01*
X1356766Y-1626565D01*
X1359408Y-1639976D01*
X1363827Y-1652930D01*
X1369872Y-1665224D01*
X1377492Y-1676603D01*
X1386535Y-1686864D01*
X1396796Y-1695907D01*
X1408176Y-1703527D01*
X1420469Y-1709572D01*
X1433423Y-1713992D01*
X1446834Y-1716633D01*
X1460500Y-1717548D01*
X1474165Y-1716633D01*
X1487576Y-1713992D01*
X1500530Y-1709572D01*
X1512824Y-1703527D01*
X1524203Y-1695907D01*
X1534464Y-1686864D01*
X1543507Y-1676603D01*
X1549044Y-1668322D01*
X1551228Y-1665935D01*
X1554073Y-1664411D01*
X1557274Y-1663801D01*
X1566621Y-1663598D01*
X1570939Y-1663039D01*
X1575257Y-1662074D01*
X1579524Y-1660753D01*
X1583588Y-1659026D01*
X1587550Y-1656994D01*
X1591310Y-1654606D01*
X1594815Y-1651914D01*
X1598269Y-1648764D01*
X1712264Y-1534769D01*
X1715414Y-1531315D01*
X1718106Y-1527810D01*
X1720494Y-1524050D01*
X1722526Y-1520088D01*
X1724253Y-1516024D01*
X1725574Y-1511757D01*
X1726539Y-1507439D01*
X1727098Y-1503019D01*
X1727301Y-1498396D01*
X1727301Y-1092403D01*
X1727098Y-1087780D01*
X1726539Y-1083360D01*
X1725574Y-1079042D01*
X1724253Y-1074775D01*
X1722526Y-1070711D01*
X1720494Y-1066749D01*
X1718106Y-1062990D01*
X1715414Y-1059484D01*
X1712264Y-1056030D01*
X1598269Y-942035D01*
X1594815Y-938885D01*
X1591310Y-936193D01*
X1587550Y-933805D01*
X1583588Y-931773D01*
X1579524Y-930046D01*
X1575257Y-928725D01*
X1570939Y-927760D01*
X1566519Y-927201D01*
X1554226Y-926998D01*
X1550009Y-926084D01*
X1546504Y-923442D01*
X1544472Y-919581D01*
X1544218Y-915263D01*
X1545793Y-911199D01*
X1551127Y-903224D01*
X1557172Y-890930D01*
X1561592Y-877976D01*
X1564233Y-864565D01*
X1565148Y-850900D01*
X1564233Y-837234D01*
X1561592Y-823823D01*
X1557172Y-810869D01*
X1551127Y-798576D01*
X1543507Y-787196D01*
X1534464Y-776935D01*
X1524203Y-767892D01*
X1512824Y-760272D01*
X1500530Y-754227D01*
X1487576Y-749858D01*
X1474165Y-747166D01*
X1460500Y-746252D01*
X1446834Y-747166D01*
X1433423Y-749858D01*
X1420469Y-754227D01*
X1408176Y-760272D01*
X1396796Y-767892D01*
X1386535Y-776935D01*
X1377492Y-787196D01*
X1369872Y-798576D01*
X1363827Y-810869D01*
X1359408Y-823823D01*
X1356766Y-837234D01*
X1355852Y-850900D01*
X1356766Y-864565D01*
X1359408Y-877976D01*
X1363827Y-890930D01*
X1369872Y-903224D01*
X1375206Y-911199D01*
X1376781Y-915263D01*
X1376527Y-919581D01*
X1374495Y-923442D01*
X1370990Y-926084D01*
X1366774Y-926998D01*
X266598Y-926998D01*
X262686Y-926236D01*
X259435Y-924001D01*
X231546Y-896162D01*
X229666Y-893470D01*
X228701Y-890320D01*
X228803Y-887018D01*
X230733Y-877265D01*
X231648Y-863600D01*
X230733Y-849934D01*
X228041Y-836523D01*
X223672Y-823569D01*
X217627Y-811276D01*
X210007Y-799896D01*
X200964Y-789635D01*
X190703Y-780592D01*
X179324Y-772972D01*
X167030Y-766927D01*
X154076Y-762558D01*
X140665Y-759866D01*
X127000Y-758952D01*
X113334Y-759866D01*
X99923Y-762558D01*
X86969Y-766927D01*
X74676Y-772972D01*
X63296Y-780592D01*
X53035Y-789635D01*
X43688Y-800252D01*
X40436Y-802690D01*
X36525Y-803706D01*
X32512Y-803046D01*
X29057Y-800862D01*
X26720Y-797509D01*
X25908Y-793546D01*
X25908Y-300685D01*
X26822Y-278079D01*
X29362Y-256743D01*
X33629Y-235610D01*
X39471Y-214934D01*
X46939Y-194767D01*
X55981Y-175209D01*
X66548Y-156464D01*
X78536Y-138582D01*
X91846Y-121716D01*
X106476Y-105918D01*
X122326Y-91338D01*
X139242Y-78028D01*
X157124Y-66141D01*
X175920Y-55626D01*
X195478Y-46634D01*
X215696Y-39217D01*
X236423Y-33426D01*
X257505Y-29260D01*
X278892Y-26771D01*
X300685Y-25908D01*
X1736445Y-25908D01*
X1740357Y-26670D01*
X1743659Y-28905D01*
X1745843Y-32156D01*
X1746605Y-36068D01*
X1745843Y-39979D01*
X1743659Y-43230D01*
X1687575Y-99364D01*
X1682445Y-105562D01*
X1678889Y-112268D01*
X1677873Y-115570D01*
X1675993Y-119075D01*
X1672945Y-121564D01*
X1669186Y-122732D01*
X1665274Y-122377D01*
X1661769Y-120548D01*
X1660042Y-119176D01*
X1647494Y-111404D01*
X1634083Y-105257D01*
X1620062Y-100787D01*
X1605534Y-98044D01*
X1590802Y-97129D01*
X1576070Y-98044D01*
X1561541Y-100787D01*
X1547520Y-105257D01*
X1534109Y-111404D01*
X1521561Y-119176D01*
X1510030Y-128422D01*
X1499768Y-139039D01*
X1490878Y-150825D01*
X1483512Y-163576D01*
X1477772Y-177190D01*
X1473708Y-191363D01*
X1471422Y-205943D01*
X1471015Y-220725D01*
X1472336Y-235407D01*
X1475486Y-249834D01*
X1480413Y-263753D01*
X1487017Y-276961D01*
X1495145Y-289255D01*
X1504746Y-300482D01*
X1515668Y-310388D01*
X1527708Y-318922D01*
X1540713Y-325932D01*
X1554480Y-331266D01*
X1566113Y-334162D01*
X1569618Y-335838D01*
X1572260Y-338734D01*
X1573631Y-342392D01*
X1573530Y-346303D01*
X1571955Y-349859D01*
X1569110Y-352552D01*
X1565503Y-354025D01*
X1561541Y-354736D01*
X1547520Y-359206D01*
X1534109Y-365404D01*
X1521561Y-373176D01*
X1510030Y-382422D01*
X1499768Y-392988D01*
X1490878Y-404774D01*
X1483512Y-417576D01*
X1477772Y-431139D01*
X1473555Y-445820D01*
X1471523Y-449630D01*
X1468069Y-452272D01*
X1463802Y-453186D01*
X1459534Y-452272D01*
X1456080Y-449630D01*
X1454048Y-445820D01*
X1449832Y-431139D01*
X1444091Y-417576D01*
X1436725Y-404774D01*
X1427835Y-392988D01*
X1417574Y-382422D01*
X1406042Y-373176D01*
X1393494Y-365404D01*
X1380083Y-359206D01*
X1366062Y-354736D01*
X1351534Y-352044D01*
X1336802Y-351129D01*
X1322070Y-352044D01*
X1307541Y-354736D01*
X1293520Y-359206D01*
X1280109Y-365404D01*
X1267561Y-373176D01*
X1256030Y-382422D01*
X1245768Y-392988D01*
X1236878Y-404774D01*
X1229512Y-417576D01*
X1223772Y-431139D01*
X1219555Y-445820D01*
X1217523Y-449630D01*
X1214069Y-452272D01*
X1209802Y-453186D01*
X1205534Y-452272D01*
X1202080Y-449630D01*
X1200048Y-445820D01*
X1195832Y-431139D01*
X1190091Y-417576D01*
X1182725Y-404774D01*
X1173835Y-392988D01*
X1163574Y-382422D01*
X1152042Y-373176D01*
X1139494Y-365404D01*
X1126083Y-359206D01*
X1112062Y-354736D01*
X1108100Y-354025D01*
X1104493Y-352552D01*
X1101648Y-349859D01*
X1100074Y-346303D01*
X1099972Y-342392D01*
X1101344Y-338734D01*
X1103985Y-335838D01*
X1107490Y-334162D01*
X1119124Y-331266D01*
X1132890Y-325932D01*
X1145895Y-318922D01*
X1157935Y-310388D01*
X1168857Y-300482D01*
X1178458Y-289255D01*
X1186586Y-276961D01*
X1193190Y-263753D01*
X1198118Y-249834D01*
X1201267Y-235407D01*
X1202639Y-220725D01*
X1202182Y-205943D01*
X1199845Y-191262D01*
X1195832Y-177190D01*
X1190091Y-163576D01*
X1182725Y-150825D01*
X1173835Y-139039D01*
X1163574Y-128422D01*
X1152042Y-119176D01*
X1139494Y-111404D01*
X1126083Y-105257D01*
X1112062Y-100787D01*
X1097534Y-98044D01*
X1082802Y-97129D01*
X1068070Y-98044D01*
X1053541Y-100787D01*
X1039520Y-105257D01*
X1026109Y-111404D01*
X1013561Y-119176D01*
X1002030Y-128422D01*
X991768Y-139039D01*
X982878Y-150825D01*
X975512Y-163576D01*
X969771Y-177190D01*
X965555Y-191820D01*
X963523Y-195681D01*
X960069Y-198272D01*
X955802Y-199237D01*
X951534Y-198272D01*
X948080Y-195681D01*
X946048Y-191820D01*
X941832Y-177190D01*
X936091Y-163576D01*
X928725Y-150825D01*
X919835Y-139039D01*
X909574Y-128422D01*
X898042Y-119176D01*
X885494Y-111404D01*
X872083Y-105257D01*
X858062Y-100787D01*
X843534Y-98044D01*
X828802Y-97129D01*
X814069Y-98044D01*
X799541Y-100787D01*
X785520Y-105257D01*
X772109Y-111404D01*
X759561Y-119176D01*
X748030Y-128422D01*
X737768Y-139039D01*
X728878Y-150825D01*
X721512Y-163576D01*
X715772Y-177190D01*
X711708Y-191363D01*
X709422Y-205943D01*
X709015Y-220725D01*
X710336Y-235407D01*
X713486Y-249834D01*
X718413Y-263753D01*
X725017Y-276961D01*
X733145Y-289255D01*
X742746Y-300482D01*
X753668Y-310388D01*
X765708Y-318922D01*
X778713Y-325932D01*
X792480Y-331266D01*
X804113Y-334162D01*
X807618Y-335838D01*
X810260Y-338734D01*
X811631Y-342392D01*
X811530Y-346303D01*
X809955Y-349859D01*
X807110Y-352552D01*
X803503Y-354025D01*
X799541Y-354736D01*
X785520Y-359206D01*
X772109Y-365404D01*
X759561Y-373176D01*
X748030Y-382422D01*
X737768Y-392988D01*
X728878Y-404774D01*
X721512Y-417576D01*
X715772Y-431139D01*
X711708Y-445363D01*
X709422Y-459943D01*
X709015Y-474675D01*
X710336Y-489356D01*
X713486Y-503783D01*
X718413Y-517702D01*
X725017Y-530910D01*
X733145Y-543204D01*
X742746Y-554431D01*
X753668Y-564388D01*
X765708Y-572922D01*
X778713Y-579882D01*
X792480Y-585216D01*
X806754Y-588822D01*
X821436Y-590651D01*
X836168Y-590651D01*
X850849Y-588822D01*
X865124Y-585216D01*
X878890Y-579882D01*
X891895Y-572922D01*
X903935Y-564388D01*
X914857Y-554431D01*
X924458Y-543204D01*
X932586Y-530910D01*
X939190Y-517702D01*
X944118Y-503783D01*
X945896Y-495655D01*
X947419Y-492048D01*
X950214Y-489356D01*
X953871Y-487883D01*
X957732Y-487883D01*
X961390Y-489356D01*
X964184Y-492048D01*
X965708Y-495655D01*
X967486Y-503783D01*
X972413Y-517702D01*
X979017Y-530910D01*
X987145Y-543204D01*
X996746Y-554431D01*
X1007668Y-564388D01*
X1019708Y-572922D01*
X1032713Y-579882D01*
X1046480Y-585216D01*
X1060754Y-588822D01*
X1075436Y-590651D01*
X1090168Y-590651D01*
X1104849Y-588822D01*
X1119124Y-585216D01*
X1129792Y-581101D01*
X1133652Y-580390D01*
X1137462Y-581202D01*
X1140663Y-583387D01*
X1219250Y-661924D01*
X1225448Y-667054D01*
X1232154Y-670610D01*
X1239367Y-672795D01*
X1247394Y-673608D01*
X1364081Y-673608D01*
X1367993Y-674370D01*
X1371295Y-676605D01*
X1394764Y-700024D01*
X1400962Y-705154D01*
X1407668Y-708710D01*
X1414881Y-710895D01*
X1422908Y-711708D01*
X1846935Y-711708D01*
X1850847Y-712470D01*
X1854149Y-714705D01*
X2015794Y-876350D01*
X2018030Y-879652D01*
X2018792Y-883564D01*
X2018792Y-937615D01*
X2017979Y-941628D01*
X2015591Y-945032D01*
X2012035Y-947166D01*
X2007971Y-947724D01*
X2004009Y-946658D01*
X2000757Y-944067D01*
X1995424Y-937564D01*
X1888489Y-830630D01*
X1886457Y-827684D01*
X1885543Y-824280D01*
X1884832Y-815898D01*
X1882444Y-806551D01*
X1878431Y-797763D01*
X1873046Y-789787D01*
X1866392Y-782828D01*
X1858619Y-777087D01*
X1849983Y-772718D01*
X1840788Y-769924D01*
X1831238Y-768654D01*
X1821586Y-769112D01*
X1812137Y-771144D01*
X1803196Y-774700D01*
X1794967Y-779780D01*
X1787753Y-786130D01*
X1781657Y-793648D01*
X1776984Y-802081D01*
X1773783Y-811174D01*
X1772157Y-820674D01*
X1772157Y-830326D01*
X1773783Y-839825D01*
X1776984Y-848918D01*
X1781657Y-857351D01*
X1787753Y-864869D01*
X1794967Y-871219D01*
X1803196Y-876300D01*
X1812137Y-879856D01*
X1821586Y-881887D01*
X1827072Y-882142D01*
X1830730Y-883005D01*
X1833829Y-885088D01*
X1926894Y-978204D01*
X1929130Y-981506D01*
X1929892Y-985418D01*
X1929892Y-1948281D01*
X1929130Y-1952193D01*
X1926894Y-1955495D01*
X1587195Y-2295194D01*
X1583893Y-2297430D01*
X1579981Y-2298192D01*
X757021Y-2298192D01*
X753059Y-2297379D01*
X741019Y-2288387D01*
X732383Y-2284018D01*
X723188Y-2281224D01*
X713638Y-2279954D01*
X703986Y-2280412D01*
X694537Y-2282444D01*
X685596Y-2286000D01*
X679450Y-2289810D01*
X675995Y-2291130D01*
X672236Y-2291130D01*
X668731Y-2289759D01*
X665988Y-2287219D01*
X661009Y-2280564D01*
X652322Y-2271877D01*
X642518Y-2264562D01*
X639927Y-2263140D01*
X636930Y-2260650D01*
X635101Y-2257247D01*
X634695Y-2253386D01*
X635711Y-2249678D01*
X638098Y-2246579D01*
X641451Y-2244648D01*
X647293Y-2242566D01*
X652221Y-2239518D01*
X656285Y-2235403D01*
X659384Y-2230526D01*
X661263Y-2225040D01*
X662025Y-2218740D01*
X662025Y-2205634D01*
X607466Y-2205634D01*
X607466Y-2300427D01*
X649579Y-2300427D01*
X653389Y-2301189D01*
X656590Y-2303272D01*
X658825Y-2306421D01*
X659739Y-2310180D01*
X659180Y-2313990D01*
X656183Y-2322474D01*
X654558Y-2331974D01*
X654558Y-2341626D01*
X656183Y-2351125D01*
X659180Y-2359609D01*
X659739Y-2363419D01*
X658825Y-2367178D01*
X656590Y-2370328D01*
X653389Y-2372410D01*
X649579Y-2373172D01*
X607466Y-2373172D01*
X607466Y-2421890D01*
X620318Y-2419197D01*
X631799Y-2414930D01*
X642518Y-2409037D01*
X652322Y-2401722D01*
X661009Y-2393035D01*
X665988Y-2386380D01*
X668731Y-2383840D01*
X672236Y-2382469D01*
X675995Y-2382469D01*
X679450Y-2383790D01*
X685596Y-2387600D01*
X694537Y-2391156D01*
X703986Y-2393188D01*
X713638Y-2393645D01*
X723188Y-2392375D01*
X732383Y-2389581D01*
X741019Y-2385212D01*
X753059Y-2376220D01*
X757021Y-2375408D01*
X1599692Y-2375408D01*
X1607718Y-2374595D01*
X1614932Y-2372410D01*
X1621637Y-2368854D01*
X1627835Y-2363724D01*
X1995424Y-1996135D01*
X2000757Y-1989632D01*
X2004009Y-1987042D01*
X2007971Y-1985975D01*
X2012035Y-1986534D01*
X2015591Y-1988667D01*
X2017979Y-1992071D01*
X2018792Y-1996084D01*
X2018792Y-2475992D01*
X2019604Y-2484018D01*
X2021789Y-2491232D01*
X2025345Y-2497937D01*
X2030475Y-2504135D01*
X2265476Y-2739136D01*
X2267712Y-2742590D01*
X2268423Y-2746654D01*
X2267153Y-2751328D01*
X2262632Y-2765196D01*
X2259939Y-2779471D01*
X2259025Y-2794000D01*
X2259939Y-2808528D01*
X2262632Y-2822803D01*
X2267153Y-2836672D01*
X2273350Y-2849829D01*
X2281123Y-2862122D01*
X2282901Y-2864256D01*
X2284730Y-2867558D01*
X2285187Y-2871368D01*
X2284272Y-2875026D01*
X2282037Y-2878124D01*
X2278786Y-2880156D01*
X2275078Y-2880868D01*
X2220722Y-2880868D01*
X2217013Y-2880156D01*
X2213762Y-2878124D01*
X2211527Y-2875026D01*
X2210612Y-2871368D01*
X2211070Y-2867558D01*
X2212898Y-2864256D01*
X2214676Y-2862122D01*
X2222449Y-2849829D01*
X2228646Y-2836672D01*
X2233168Y-2822803D01*
X2235860Y-2808528D01*
X2236774Y-2794000D01*
X2235860Y-2779471D01*
X2233168Y-2765196D01*
X2228646Y-2751328D01*
X2222449Y-2738170D01*
X2214676Y-2725877D01*
X2205380Y-2714650D01*
X2194763Y-2704693D01*
X2182977Y-2696159D01*
X2170226Y-2689148D01*
X2156714Y-2683764D01*
X2142591Y-2680157D01*
X2128164Y-2678328D01*
X2113635Y-2678328D01*
X2099208Y-2680157D01*
X2085086Y-2683764D01*
X2071573Y-2689148D01*
X2058822Y-2696159D01*
X2047036Y-2704693D01*
X2036419Y-2714650D01*
X2027123Y-2725877D01*
X2019350Y-2738170D01*
X2013153Y-2751328D01*
X2008632Y-2765196D01*
X2005939Y-2779471D01*
X2005025Y-2794000D01*
X2005939Y-2808528D01*
X2008632Y-2822803D01*
X2013153Y-2836672D01*
X2019350Y-2849829D01*
X2027123Y-2862122D01*
X2028901Y-2864256D01*
X2030730Y-2867558D01*
X2031187Y-2871368D01*
X2030272Y-2875026D01*
X2028037Y-2878124D01*
X2024786Y-2880156D01*
X2021078Y-2880868D01*
X1966722Y-2880868D01*
X1963013Y-2880156D01*
X1959762Y-2878124D01*
X1957527Y-2875026D01*
X1956612Y-2871368D01*
X1957070Y-2867558D01*
X1958898Y-2864256D01*
X1960676Y-2862122D01*
X1968449Y-2849829D01*
X1974646Y-2836672D01*
X1979168Y-2822803D01*
X1981860Y-2808528D01*
X1982774Y-2794000D01*
X1981860Y-2779471D01*
X1979168Y-2765196D01*
X1974646Y-2751328D01*
X1968449Y-2738170D01*
X1960676Y-2725877D01*
X1951380Y-2714650D01*
X1940763Y-2704693D01*
X1928977Y-2696159D01*
X1916226Y-2689148D01*
X1902714Y-2683764D01*
X1888591Y-2680157D01*
X1874164Y-2678328D01*
X1859635Y-2678328D01*
X1845208Y-2680157D01*
X1831086Y-2683764D01*
X1817573Y-2689148D01*
X1804822Y-2696159D01*
X1793036Y-2704693D01*
X1787042Y-2710332D01*
X1783486Y-2712516D01*
X1779422Y-2713075D01*
X1775409Y-2711958D01*
X1772208Y-2709367D01*
X1766824Y-2702864D01*
X1691335Y-2627376D01*
X1685137Y-2622245D01*
X1678432Y-2618689D01*
X1671218Y-2616504D01*
X1663192Y-2615692D01*
X1245108Y-2615692D01*
X1237081Y-2616504D01*
X1229868Y-2618689D01*
X1223162Y-2622245D01*
X1216964Y-2627376D01*
X1159611Y-2684678D01*
X1156360Y-2686862D01*
X1152550Y-2687675D01*
X1148689Y-2686964D01*
X1140714Y-2683764D01*
X1126591Y-2680157D01*
X1112164Y-2678328D01*
X1097635Y-2678328D01*
X1083208Y-2680157D01*
X1069086Y-2683764D01*
X1055573Y-2689148D01*
X1042822Y-2696159D01*
X1031036Y-2704693D01*
X1020419Y-2714650D01*
X1011123Y-2725877D01*
X1003350Y-2738170D01*
X997153Y-2751328D01*
X992632Y-2765196D01*
X989939Y-2779471D01*
X989025Y-2794000D01*
X989939Y-2808528D01*
X992632Y-2822803D01*
X997153Y-2836672D01*
X1003350Y-2849829D01*
X1011123Y-2862122D01*
X1020419Y-2873349D01*
X1031036Y-2883306D01*
X1042822Y-2891840D01*
X1055573Y-2898851D01*
X1069086Y-2904236D01*
X1083208Y-2907842D01*
X1097635Y-2909671D01*
X1112164Y-2909671D01*
X1126591Y-2907842D01*
X1140714Y-2904236D01*
X1154226Y-2898851D01*
X1166977Y-2891840D01*
X1178763Y-2883306D01*
X1189380Y-2873349D01*
X1198676Y-2862122D01*
X1206449Y-2849829D01*
X1212646Y-2836672D01*
X1217168Y-2822803D01*
X1219860Y-2808528D01*
X1220774Y-2794000D01*
X1219860Y-2779471D01*
X1217168Y-2765196D01*
X1212646Y-2751328D01*
X1211376Y-2746654D01*
X1212088Y-2742590D01*
X1214323Y-2739136D01*
X1257604Y-2695905D01*
X1260906Y-2693670D01*
X1264818Y-2692908D01*
X1271930Y-2692908D01*
X1275892Y-2693720D01*
X1279194Y-2695956D01*
X1281379Y-2699308D01*
X1282090Y-2703271D01*
X1281226Y-2707182D01*
X1278890Y-2710484D01*
X1274419Y-2714650D01*
X1265123Y-2725877D01*
X1257350Y-2738170D01*
X1255217Y-2742641D01*
X1307541Y-2742641D01*
X1307541Y-2703068D01*
X1308303Y-2699156D01*
X1310538Y-2695905D01*
X1313840Y-2693670D01*
X1317701Y-2692908D01*
X1400098Y-2692908D01*
X1403959Y-2693670D01*
X1407261Y-2695905D01*
X1409496Y-2699156D01*
X1410258Y-2703068D01*
X1410258Y-2742641D01*
X1462582Y-2742641D01*
X1460449Y-2738170D01*
X1452676Y-2725877D01*
X1443380Y-2714650D01*
X1438910Y-2710484D01*
X1436573Y-2707182D01*
X1435709Y-2703271D01*
X1436420Y-2699308D01*
X1438605Y-2695956D01*
X1441907Y-2693720D01*
X1445869Y-2692908D01*
X1525930Y-2692908D01*
X1529892Y-2693720D01*
X1533194Y-2695956D01*
X1535379Y-2699308D01*
X1536090Y-2703271D01*
X1535226Y-2707182D01*
X1532890Y-2710484D01*
X1528419Y-2714650D01*
X1519123Y-2725877D01*
X1511350Y-2738170D01*
X1505153Y-2751328D01*
X1500632Y-2765196D01*
X1497939Y-2779471D01*
X1497025Y-2794000D01*
X1497939Y-2808528D01*
X1500632Y-2822803D01*
X1505153Y-2836672D01*
X1511350Y-2849829D01*
X1519123Y-2862122D01*
X1528419Y-2873349D01*
X1539036Y-2883306D01*
X1550822Y-2891840D01*
X1563573Y-2898851D01*
X1577086Y-2904236D01*
X1591208Y-2907842D01*
X1605635Y-2909671D01*
X1620164Y-2909671D01*
X1634591Y-2907842D01*
X1648764Y-2904185D01*
X1652219Y-2903931D01*
X1655622Y-2904845D01*
X1658467Y-2906877D01*
X1737664Y-2986024D01*
X1743862Y-2991154D01*
X1750568Y-2994710D01*
X1757781Y-2996895D01*
X1765807Y-2997708D01*
X2661158Y-2997708D01*
X2669184Y-2996895D01*
X2676398Y-2994710D01*
X2683103Y-2991154D01*
X2689301Y-2986024D01*
X2782824Y-2892501D01*
X2787954Y-2886303D01*
X2789834Y-2882798D01*
X2792120Y-2879902D01*
X2795320Y-2878023D01*
X2798978Y-2877464D01*
X2802636Y-2878175D01*
X2805734Y-2880207D01*
X2809036Y-2883306D01*
X2820822Y-2891840D01*
X2833573Y-2898851D01*
X2847086Y-2904236D01*
X2861208Y-2907842D01*
X2875635Y-2909671D01*
X2890164Y-2909671D01*
X2904591Y-2907842D01*
X2918714Y-2904236D01*
X2932226Y-2898851D01*
X2944977Y-2891840D01*
X2956763Y-2883306D01*
X2967380Y-2873349D01*
X2976676Y-2862122D01*
X2984449Y-2849829D01*
X2990646Y-2836672D01*
X2995168Y-2822803D01*
X2997860Y-2808528D01*
X2998774Y-2794000D01*
X2997860Y-2779471D01*
X2995168Y-2765196D01*
X2990646Y-2751328D01*
X2989376Y-2746654D01*
X2990088Y-2742590D01*
X2992323Y-2739136D01*
X3068218Y-2663291D01*
X3071723Y-2661005D01*
X3085388Y-2659075D01*
X3094583Y-2656281D01*
X3103219Y-2651912D01*
X3110992Y-2646172D01*
X3117646Y-2639212D01*
X3123031Y-2631236D01*
X3127044Y-2622448D01*
X3129432Y-2613101D01*
X3130296Y-2603500D01*
X3129432Y-2593898D01*
X3127044Y-2584551D01*
X3123031Y-2575763D01*
X3117646Y-2567787D01*
X3110992Y-2560828D01*
X3103219Y-2555087D01*
X3094583Y-2550718D01*
X3085388Y-2547924D01*
X3075838Y-2546654D01*
X3066186Y-2547112D01*
X3056737Y-2549144D01*
X3047796Y-2552700D01*
X3039567Y-2557780D01*
X3032353Y-2564130D01*
X3026257Y-2571648D01*
X3021584Y-2580081D01*
X3018383Y-2589174D01*
X3016758Y-2598674D01*
X3016758Y-2601366D01*
X3015945Y-2605227D01*
X3013760Y-2608529D01*
X2937611Y-2684678D01*
X2934360Y-2686862D01*
X2930550Y-2687675D01*
X2926689Y-2686964D01*
X2918714Y-2683764D01*
X2904591Y-2680157D01*
X2890164Y-2678328D01*
X2875635Y-2678328D01*
X2861208Y-2680157D01*
X2847086Y-2683764D01*
X2833573Y-2689148D01*
X2820822Y-2696159D01*
X2809036Y-2704693D01*
X2798114Y-2715056D01*
X2794812Y-2717698D01*
X2790748Y-2718765D01*
X2786583Y-2718054D01*
X2783078Y-2715768D01*
X2704541Y-2637231D01*
X2698343Y-2632151D01*
X2691688Y-2628595D01*
X2684475Y-2626410D01*
X2676956Y-2625648D01*
X2669438Y-2626360D01*
X2664206Y-2627934D01*
X2661259Y-2628392D01*
X2623718Y-2628392D01*
X2619806Y-2627630D01*
X2616504Y-2625394D01*
X2382672Y-2391562D01*
X2380488Y-2388311D01*
X2379675Y-2384552D01*
X2380335Y-2380742D01*
X2382418Y-2377440D01*
X2385517Y-2375154D01*
X2390394Y-2372918D01*
X2398420Y-2367280D01*
X2405380Y-2360320D01*
X2411018Y-2352294D01*
X2415133Y-2343353D01*
X2417673Y-2333904D01*
X2418537Y-2324100D01*
X2417673Y-2314295D01*
X2415133Y-2304846D01*
X2411018Y-2295906D01*
X2405380Y-2287879D01*
X2398420Y-2280920D01*
X2390394Y-2275281D01*
X2381453Y-2271166D01*
X2372004Y-2268626D01*
X2363978Y-2267915D01*
X2360574Y-2267000D01*
X2357678Y-2264968D01*
X2302205Y-2209495D01*
X2299970Y-2206193D01*
X2299208Y-2202281D01*
X2299208Y-793648D01*
X2299970Y-789736D01*
X2302205Y-786434D01*
X2503424Y-585165D01*
X2508554Y-578967D01*
X2512110Y-572262D01*
X2513584Y-567537D01*
X2515514Y-563981D01*
X2518664Y-561441D01*
X2522626Y-560374D01*
X2526639Y-560882D01*
X2530144Y-562965D01*
X2531668Y-564388D01*
X2543708Y-572922D01*
X2556713Y-579882D01*
X2570480Y-585216D01*
X2584754Y-588822D01*
X2599436Y-590651D01*
X2614168Y-590651D01*
X2628849Y-588822D01*
X2643124Y-585216D01*
X2656890Y-579882D01*
X2669895Y-572922D01*
X2681935Y-564388D01*
X2692857Y-554431D01*
X2702458Y-543204D01*
X2710586Y-530910D01*
X2717190Y-517702D01*
X2722118Y-503783D01*
X2723896Y-495655D01*
X2725420Y-492048D01*
X2728214Y-489356D01*
X2731871Y-487883D01*
X2735732Y-487883D01*
X2739390Y-489356D01*
X2742184Y-492048D01*
X2743708Y-495655D01*
X2745486Y-503783D01*
X2750413Y-517702D01*
X2757017Y-530910D01*
X2765145Y-543204D01*
X2774746Y-554431D01*
X2785668Y-564388D01*
X2797708Y-572922D01*
X2810713Y-579882D01*
X2824480Y-585216D01*
X2838754Y-588822D01*
X2853436Y-590651D01*
X2868168Y-590651D01*
X2882849Y-588822D01*
X2897124Y-585216D01*
X2910890Y-579882D01*
X2923895Y-572922D01*
X2935935Y-564388D01*
X2946857Y-554431D01*
X2956458Y-543204D01*
X2964586Y-530910D01*
X2971190Y-517702D01*
X2976118Y-503783D01*
X2977896Y-495655D01*
X2979420Y-492048D01*
X2982214Y-489356D01*
X2985871Y-487883D01*
X2989732Y-487883D01*
X2993390Y-489356D01*
X2996184Y-492048D01*
X2997708Y-495655D01*
X2999486Y-503783D01*
X3004413Y-517702D01*
X3011017Y-530910D01*
X3019145Y-543204D01*
X3028746Y-554431D01*
X3039668Y-564388D01*
X3051708Y-572922D01*
X3064713Y-579882D01*
X3069691Y-581812D01*
X3073095Y-583996D01*
X3075381Y-587349D01*
X3076194Y-591312D01*
X3076194Y-637794D01*
X3077006Y-645820D01*
X3079191Y-653034D01*
X3082747Y-659739D01*
X3087878Y-665937D01*
X3185464Y-763524D01*
X3191662Y-768654D01*
X3198368Y-772210D01*
X3205581Y-774395D01*
X3213608Y-775208D01*
X3444849Y-775208D01*
X3448812Y-776020D01*
X3452164Y-778306D01*
X3454349Y-781710D01*
X3455009Y-785723D01*
X3454044Y-789686D01*
X3452266Y-793546D01*
X3449726Y-802995D01*
X3448862Y-812800D01*
X3449726Y-822604D01*
X3452266Y-832053D01*
X3456381Y-840994D01*
X3462020Y-849020D01*
X3468979Y-855980D01*
X3477006Y-861618D01*
X3485946Y-865733D01*
X3495395Y-868273D01*
X3505200Y-869137D01*
X3515004Y-868273D01*
X3524453Y-865733D01*
X3533394Y-861618D01*
X3541420Y-855980D01*
X3542995Y-854405D01*
X3546297Y-852169D01*
X3550208Y-851408D01*
X3663391Y-851408D01*
X3667302Y-852169D01*
X3670604Y-854405D01*
X3672179Y-855980D01*
X3680206Y-861618D01*
X3689146Y-865733D01*
X3698595Y-868273D01*
X3708400Y-869137D01*
X3718204Y-868273D01*
X3727653Y-865733D01*
X3736594Y-861618D01*
X3744620Y-855980D01*
X3751579Y-849020D01*
X3757218Y-840994D01*
X3761333Y-832053D01*
X3763873Y-822604D01*
X3764737Y-812800D01*
X3763873Y-802995D01*
X3761333Y-793546D01*
X3759555Y-789686D01*
X3758590Y-785723D01*
X3759250Y-781710D01*
X3761435Y-778306D01*
X3764787Y-776020D01*
X3768750Y-775208D01*
X3913632Y-775208D01*
X3917543Y-775970D01*
X3920794Y-778205D01*
X3923029Y-781456D01*
X3923792Y-785368D01*
X3923792Y-1675892D01*
X3924604Y-1683918D01*
X3926789Y-1691132D01*
X3930345Y-1697837D01*
X3935476Y-1704035D01*
X4073194Y-1841804D01*
X4075429Y-1845106D01*
X4076192Y-1849018D01*
X4076192Y-2006092D01*
X4077004Y-2014118D01*
X4079189Y-2021332D01*
X4082745Y-2028037D01*
X4087876Y-2034235D01*
X4163364Y-2109724D01*
X4169562Y-2114854D01*
X4176268Y-2118410D01*
X4183481Y-2120595D01*
X4191508Y-2121408D01*
X4482592Y-2121408D01*
X4490618Y-2120595D01*
X4497832Y-2118410D01*
X4504537Y-2114854D01*
X4510735Y-2109724D01*
X4521504Y-2099005D01*
X4524806Y-2096770D01*
X4528718Y-2096007D01*
X4609592Y-2096007D01*
X4617618Y-2095195D01*
X4624832Y-2093010D01*
X4631537Y-2089454D01*
X4637735Y-2084324D01*
X4731969Y-1990140D01*
X4735220Y-1987956D01*
X4739132Y-1987194D01*
X4743043Y-1987956D01*
X4746294Y-1990140D01*
X4748530Y-1993442D01*
X4749292Y-1997354D01*
X4749292Y-2443581D01*
X4748530Y-2447493D01*
X4746294Y-2450795D01*
X4665421Y-2531668D01*
X4662525Y-2533700D01*
X4659122Y-2534615D01*
X4651095Y-2535326D01*
X4641646Y-2537866D01*
X4632706Y-2541981D01*
X4624679Y-2547620D01*
X4617720Y-2554579D01*
X4612081Y-2562606D01*
X4607966Y-2571546D01*
X4605426Y-2580995D01*
X4604562Y-2590800D01*
X4605426Y-2600604D01*
X4607966Y-2610053D01*
X4612081Y-2618994D01*
X4617720Y-2627020D01*
X4624679Y-2633980D01*
X4632706Y-2639618D01*
X4641646Y-2643733D01*
X4651095Y-2646273D01*
X4660900Y-2647137D01*
X4670704Y-2646273D01*
X4680153Y-2643733D01*
X4689094Y-2639618D01*
X4697120Y-2633980D01*
X4704080Y-2627020D01*
X4709718Y-2618994D01*
X4713833Y-2610053D01*
X4716373Y-2600604D01*
X4717084Y-2592578D01*
X4717999Y-2589174D01*
X4720031Y-2586278D01*
X4814824Y-2491435D01*
X4819954Y-2485237D01*
X4823510Y-2478532D01*
X4825695Y-2471318D01*
X4826508Y-2463292D01*
X4826508Y-1791207D01*
X4825695Y-1783181D01*
X4823510Y-1775968D01*
X4819954Y-1769262D01*
X4814824Y-1763064D01*
X4709718Y-1657908D01*
X4707432Y-1654352D01*
X4706772Y-1650136D01*
X4707483Y-1638300D01*
X4706569Y-1623110D01*
X4703826Y-1608175D01*
X4699304Y-1593646D01*
X4693056Y-1579778D01*
X4685182Y-1566773D01*
X4675835Y-1554835D01*
X4665065Y-1544066D01*
X4653127Y-1534718D01*
X4640122Y-1526844D01*
X4626203Y-1520545D01*
X4623003Y-1518361D01*
X4620920Y-1515110D01*
X4620209Y-1511300D01*
X4620920Y-1507490D01*
X4623003Y-1504238D01*
X4626203Y-1502054D01*
X4640122Y-1495755D01*
X4653127Y-1487881D01*
X4665065Y-1478534D01*
X4675835Y-1467764D01*
X4685182Y-1455826D01*
X4693056Y-1442821D01*
X4699304Y-1428953D01*
X4703826Y-1414424D01*
X4706569Y-1399489D01*
X4707483Y-1384300D01*
X4706569Y-1369110D01*
X4703826Y-1354175D01*
X4699304Y-1339646D01*
X4693056Y-1325778D01*
X4685182Y-1312773D01*
X4675835Y-1300835D01*
X4665065Y-1290066D01*
X4653127Y-1280718D01*
X4640122Y-1272844D01*
X4626203Y-1266545D01*
X4623003Y-1264361D01*
X4620920Y-1261110D01*
X4620209Y-1257300D01*
X4620920Y-1253490D01*
X4623003Y-1250238D01*
X4626203Y-1248054D01*
X4640122Y-1241755D01*
X4653127Y-1233881D01*
X4665065Y-1224534D01*
X4675835Y-1213764D01*
X4685182Y-1201826D01*
X4693056Y-1188821D01*
X4699304Y-1174953D01*
X4703826Y-1160424D01*
X4706569Y-1145489D01*
X4707483Y-1130300D01*
X4706569Y-1115110D01*
X4703826Y-1100175D01*
X4699304Y-1085646D01*
X4693056Y-1071778D01*
X4685182Y-1058773D01*
X4675835Y-1046835D01*
X4665065Y-1036066D01*
X4653127Y-1026718D01*
X4640122Y-1018844D01*
X4626254Y-1012596D01*
X4611725Y-1008075D01*
X4596790Y-1005332D01*
X4581601Y-1004417D01*
X4566412Y-1005332D01*
X4551476Y-1008075D01*
X4536948Y-1012596D01*
X4523079Y-1018844D01*
X4510074Y-1026718D01*
X4498136Y-1036066D01*
X4487367Y-1046835D01*
X4478020Y-1058773D01*
X4472381Y-1068120D01*
X4469333Y-1071270D01*
X4465320Y-1072896D01*
X4460951Y-1072642D01*
X4457090Y-1070610D01*
X4454448Y-1067104D01*
X4453534Y-1062837D01*
X4453534Y-1030884D01*
X4452772Y-1024534D01*
X4450892Y-1019098D01*
X4447794Y-1014171D01*
X4443730Y-1010107D01*
X4438802Y-1007008D01*
X4433366Y-1005128D01*
X4427016Y-1004417D01*
X4383938Y-1004417D01*
X4383938Y-1073962D01*
X4453737Y-1073962D01*
X4457446Y-1074674D01*
X4460646Y-1076655D01*
X4462881Y-1079703D01*
X4463846Y-1083360D01*
X4463440Y-1087120D01*
X4459376Y-1100175D01*
X4456633Y-1115110D01*
X4455718Y-1130300D01*
X4456633Y-1145489D01*
X4459376Y-1160424D01*
X4463440Y-1173480D01*
X4463846Y-1177239D01*
X4462881Y-1180896D01*
X4460646Y-1183944D01*
X4457446Y-1185926D01*
X4453737Y-1186637D01*
X4383938Y-1186637D01*
X4383938Y-1256436D01*
X4383227Y-1260144D01*
X4381246Y-1263345D01*
X4378198Y-1265580D01*
X4374540Y-1266545D01*
X4370781Y-1266139D01*
X4357725Y-1262075D01*
X4342790Y-1259332D01*
X4327601Y-1258417D01*
X4312412Y-1259332D01*
X4297476Y-1262075D01*
X4284421Y-1266139D01*
X4280662Y-1266545D01*
X4277004Y-1265580D01*
X4273956Y-1263345D01*
X4271975Y-1260144D01*
X4271264Y-1256436D01*
X4271264Y-1186637D01*
X4214368Y-1186637D01*
X4210456Y-1185875D01*
X4207205Y-1183690D01*
X4204970Y-1180388D01*
X4204208Y-1176477D01*
X4204208Y-1084122D01*
X4204970Y-1080211D01*
X4207205Y-1076909D01*
X4210456Y-1074724D01*
X4214368Y-1073962D01*
X4271264Y-1073962D01*
X4271264Y-1004417D01*
X4230928Y-1004417D01*
X4227068Y-1003604D01*
X4223766Y-1001420D01*
X4221530Y-998118D01*
X4220768Y-994257D01*
X4221530Y-990346D01*
X4223766Y-987044D01*
X4281424Y-929335D01*
X4286554Y-923137D01*
X4290110Y-916432D01*
X4292295Y-909218D01*
X4293108Y-901192D01*
X4293108Y-572312D01*
X4294073Y-567994D01*
X4296765Y-564489D01*
X4300677Y-562508D01*
X4305096Y-562305D01*
X4309160Y-564032D01*
X4321708Y-572922D01*
X4334713Y-579882D01*
X4348480Y-585216D01*
X4362754Y-588822D01*
X4377436Y-590651D01*
X4392168Y-590651D01*
X4406849Y-588822D01*
X4421124Y-585216D01*
X4434890Y-579882D01*
X4447895Y-572922D01*
X4459935Y-564388D01*
X4470857Y-554431D01*
X4480458Y-543204D01*
X4488586Y-530910D01*
X4495190Y-517702D01*
X4500118Y-503783D01*
X4501896Y-495655D01*
X4503420Y-492048D01*
X4506214Y-489356D01*
X4509871Y-487883D01*
X4513732Y-487883D01*
X4517390Y-489356D01*
X4520184Y-492048D01*
X4521708Y-495655D01*
X4523486Y-503783D01*
X4528413Y-517702D01*
X4535017Y-530910D01*
X4543145Y-543204D01*
X4552746Y-554431D01*
X4563668Y-564388D01*
X4575708Y-572922D01*
X4588713Y-579882D01*
X4602480Y-585216D01*
X4616754Y-588822D01*
X4631436Y-590651D01*
X4646168Y-590651D01*
X4660849Y-588822D01*
X4675124Y-585216D01*
X4688890Y-579882D01*
X4701895Y-572922D01*
X4707839Y-568706D01*
X4711903Y-566978D01*
X4716322Y-567182D01*
X4720234Y-569163D01*
X4722926Y-572668D01*
X4723892Y-576986D01*
X4723892Y-800608D01*
X4724704Y-808634D01*
X4726889Y-815848D01*
X4730445Y-822553D01*
X4735576Y-828751D01*
X4860594Y-953820D01*
X4862830Y-957122D01*
X4863592Y-961034D01*
X4863592Y-2285492D01*
X4864404Y-2293518D01*
X4866589Y-2300732D01*
X4870145Y-2307437D01*
X4875276Y-2313635D01*
X4911902Y-2350312D01*
X4913934Y-2353208D01*
X4914849Y-2356612D01*
X4915560Y-2364638D01*
X4918100Y-2374138D01*
X4922266Y-2383028D01*
X4927904Y-2391105D01*
X4934813Y-2398014D01*
X4942890Y-2403652D01*
X4951780Y-2407818D01*
X4961280Y-2410358D01*
X4971084Y-2411222D01*
X4980838Y-2410358D01*
X4990338Y-2407818D01*
X4999228Y-2403652D01*
X5007305Y-2398014D01*
X5014214Y-2391105D01*
X5019852Y-2383028D01*
X5024018Y-2374138D01*
X5026558Y-2364638D01*
X5027422Y-2354884D01*
X5026558Y-2345080D01*
X5024018Y-2335580D01*
X5019852Y-2326690D01*
X5014214Y-2318613D01*
X5007305Y-2311704D01*
X4999228Y-2306066D01*
X4990338Y-2301900D01*
X4980838Y-2299360D01*
X4972812Y-2298649D01*
X4969408Y-2297734D01*
X4966512Y-2295702D01*
X4943805Y-2272995D01*
X4941570Y-2269693D01*
X4940808Y-2265781D01*
X4940808Y-941324D01*
X4939995Y-933297D01*
X4937810Y-926084D01*
X4934254Y-919378D01*
X4929124Y-913180D01*
X4804105Y-788111D01*
X4801870Y-784809D01*
X4801108Y-780897D01*
X4801108Y-572312D01*
X4802073Y-567994D01*
X4804765Y-564489D01*
X4808677Y-562508D01*
X4813096Y-562305D01*
X4817160Y-564032D01*
X4829708Y-572922D01*
X4842713Y-579882D01*
X4856480Y-585216D01*
X4870754Y-588822D01*
X4885436Y-590651D01*
X4900168Y-590651D01*
X4914849Y-588822D01*
X4929124Y-585216D01*
X4942890Y-579882D01*
X4955895Y-572922D01*
X4967935Y-564388D01*
X4978857Y-554431D01*
X4988458Y-543204D01*
X4996586Y-530910D01*
X5003190Y-517702D01*
X5008118Y-503783D01*
X5009896Y-495655D01*
X5011420Y-492048D01*
X5014214Y-489356D01*
X5017871Y-487883D01*
X5021732Y-487883D01*
X5025390Y-489356D01*
X5028184Y-492048D01*
X5029708Y-495655D01*
X5031486Y-503783D01*
X5036413Y-517702D01*
X5043017Y-530910D01*
X5051145Y-543204D01*
X5060746Y-554431D01*
X5071668Y-564388D01*
X5083708Y-572922D01*
X5096713Y-579882D01*
X5110480Y-585216D01*
X5124754Y-588822D01*
X5139436Y-590651D01*
X5154168Y-590651D01*
X5168849Y-588822D01*
X5183124Y-585216D01*
X5196890Y-579882D01*
X5209895Y-572922D01*
X5221935Y-564388D01*
X5232857Y-554431D01*
X5242458Y-543204D01*
X5250586Y-530910D01*
X5257190Y-517702D01*
X5262118Y-503783D01*
X5263896Y-495655D01*
X5265420Y-492048D01*
X5268214Y-489356D01*
X5271871Y-487883D01*
X5275732Y-487883D01*
X5279390Y-489356D01*
X5282184Y-492048D01*
X5283708Y-495655D01*
X5285486Y-503783D01*
X5290413Y-517702D01*
X5297017Y-530910D01*
X5305145Y-543204D01*
X5314746Y-554431D01*
X5325668Y-564388D01*
X5337708Y-572922D01*
X5350713Y-579882D01*
X5364480Y-585216D01*
X5378754Y-588822D01*
X5393436Y-590651D01*
X5408168Y-590651D01*
X5422849Y-588822D01*
X5437124Y-585216D01*
X5450890Y-579882D01*
X5463895Y-572922D01*
X5475935Y-564388D01*
X5486857Y-554431D01*
X5496458Y-543204D01*
X5504586Y-530910D01*
X5511190Y-517702D01*
X5516118Y-503783D01*
X5519267Y-489356D01*
X5520639Y-474675D01*
X5520182Y-459943D01*
X5517845Y-445211D01*
X5513832Y-431139D01*
X5508091Y-417576D01*
X5500725Y-404774D01*
X5491835Y-392988D01*
X5481574Y-382422D01*
X5470042Y-373176D01*
X5457494Y-365404D01*
X5444083Y-359206D01*
X5430062Y-354736D01*
X5426100Y-354025D01*
X5422493Y-352552D01*
X5419648Y-349859D01*
X5418074Y-346303D01*
X5417972Y-342392D01*
X5419344Y-338734D01*
X5421985Y-335838D01*
X5425490Y-334162D01*
X5437124Y-331266D01*
X5450890Y-325932D01*
X5463895Y-318922D01*
X5475935Y-310388D01*
X5486857Y-300482D01*
X5496458Y-289255D01*
X5504586Y-276961D01*
X5511190Y-263753D01*
X5516118Y-249834D01*
X5517896Y-241706D01*
X5519420Y-238099D01*
X5522214Y-235356D01*
X5525871Y-233883D01*
X5529732Y-233883D01*
X5533390Y-235356D01*
X5536184Y-238099D01*
X5537708Y-241706D01*
X5539486Y-249834D01*
X5544413Y-263753D01*
X5551017Y-276961D01*
X5559145Y-289255D01*
X5568746Y-300482D01*
X5579668Y-310388D01*
X5591708Y-318922D01*
X5604713Y-325932D01*
X5618480Y-331266D01*
X5632754Y-334822D01*
X5647436Y-336651D01*
X5662168Y-336651D01*
X5676849Y-334822D01*
X5691124Y-331266D01*
X5704890Y-325932D01*
X5717895Y-318922D01*
X5729935Y-310388D01*
X5740857Y-300482D01*
X5750458Y-289255D01*
X5758586Y-276961D01*
X5765190Y-263753D01*
X5770118Y-249834D01*
X5773267Y-235407D01*
X5774639Y-220725D01*
X5774182Y-205943D01*
X5771896Y-191363D01*
X5767832Y-177190D01*
X5762091Y-163576D01*
X5754725Y-150825D01*
X5745835Y-139039D01*
X5735574Y-128422D01*
X5724042Y-119176D01*
X5711494Y-111404D01*
X5698083Y-105257D01*
X5684062Y-100787D01*
X5669534Y-98044D01*
X5654802Y-97129D01*
X5640070Y-98044D01*
X5625541Y-100787D01*
X5611520Y-105257D01*
X5598109Y-111404D01*
X5585561Y-119176D01*
X5574030Y-128422D01*
X5563768Y-139039D01*
X5554878Y-150825D01*
X5547512Y-163576D01*
X5541772Y-177190D01*
X5537555Y-191820D01*
X5535523Y-195681D01*
X5532069Y-198272D01*
X5527802Y-199237D01*
X5523534Y-198272D01*
X5520080Y-195681D01*
X5518048Y-191820D01*
X5513832Y-177190D01*
X5508091Y-163576D01*
X5500725Y-150825D01*
X5491835Y-139039D01*
X5481574Y-128422D01*
X5470042Y-119176D01*
X5457494Y-111404D01*
X5444083Y-105257D01*
X5430062Y-100787D01*
X5415534Y-98044D01*
X5400802Y-97129D01*
X5386070Y-98044D01*
X5371541Y-100787D01*
X5357520Y-105257D01*
X5344109Y-111404D01*
X5331561Y-119176D01*
X5320030Y-128422D01*
X5309768Y-139039D01*
X5300878Y-150825D01*
X5293512Y-163576D01*
X5287772Y-177190D01*
X5283555Y-191820D01*
X5281523Y-195681D01*
X5278069Y-198272D01*
X5273802Y-199237D01*
X5269534Y-198272D01*
X5266080Y-195681D01*
X5264048Y-191820D01*
X5259832Y-177190D01*
X5254091Y-163576D01*
X5246725Y-150825D01*
X5237835Y-139039D01*
X5227574Y-128422D01*
X5216042Y-119176D01*
X5203494Y-111404D01*
X5190083Y-105257D01*
X5176062Y-100787D01*
X5161534Y-98044D01*
X5146802Y-97129D01*
X5132070Y-98044D01*
X5117541Y-100787D01*
X5103520Y-105257D01*
X5090109Y-111404D01*
X5077561Y-119176D01*
X5066030Y-128422D01*
X5055768Y-139039D01*
X5046878Y-150825D01*
X5039512Y-163576D01*
X5033772Y-177190D01*
X5029708Y-191363D01*
X5027422Y-205943D01*
X5027015Y-220725D01*
X5028336Y-235407D01*
X5031486Y-249834D01*
X5036413Y-263753D01*
X5043017Y-276961D01*
X5051145Y-289255D01*
X5060746Y-300482D01*
X5071668Y-310388D01*
X5083708Y-318922D01*
X5096713Y-325932D01*
X5110480Y-331266D01*
X5122113Y-334162D01*
X5125618Y-335838D01*
X5128260Y-338734D01*
X5129631Y-342392D01*
X5129530Y-346303D01*
X5127955Y-349859D01*
X5125110Y-352552D01*
X5121503Y-354025D01*
X5117541Y-354736D01*
X5103520Y-359206D01*
X5090109Y-365404D01*
X5077561Y-373176D01*
X5066030Y-382422D01*
X5055768Y-392988D01*
X5046878Y-404774D01*
X5039512Y-417576D01*
X5033772Y-431139D01*
X5029555Y-445820D01*
X5027523Y-449630D01*
X5024069Y-452272D01*
X5019802Y-453186D01*
X5015534Y-452272D01*
X5012080Y-449630D01*
X5010048Y-445820D01*
X5005832Y-431139D01*
X5000091Y-417576D01*
X4992725Y-404774D01*
X4983835Y-392988D01*
X4973574Y-382422D01*
X4962042Y-373176D01*
X4949494Y-365404D01*
X4936083Y-359206D01*
X4922062Y-354736D01*
X4907534Y-352044D01*
X4892802Y-351129D01*
X4878070Y-352044D01*
X4863541Y-354736D01*
X4849520Y-359206D01*
X4836109Y-365404D01*
X4823561Y-373176D01*
X4817618Y-377901D01*
X4814316Y-379679D01*
X4810556Y-380136D01*
X4806899Y-379171D01*
X4803851Y-376936D01*
X4801819Y-373735D01*
X4801108Y-369976D01*
X4801108Y-318312D01*
X4802073Y-314045D01*
X4804765Y-310540D01*
X4808677Y-308508D01*
X4813096Y-308356D01*
X4817160Y-310032D01*
X4829708Y-318922D01*
X4839462Y-324154D01*
X4839462Y-270357D01*
X4811268Y-270357D01*
X4807356Y-269595D01*
X4804105Y-267360D01*
X4801870Y-264109D01*
X4801108Y-260197D01*
X4801108Y-173837D01*
X4801870Y-169926D01*
X4804105Y-166674D01*
X4807356Y-164439D01*
X4811268Y-163677D01*
X4839462Y-163677D01*
X4839462Y-109880D01*
X4836109Y-111404D01*
X4823561Y-119176D01*
X4817618Y-123952D01*
X4814316Y-125730D01*
X4810556Y-126136D01*
X4806899Y-125171D01*
X4803851Y-122935D01*
X4801819Y-119735D01*
X4801108Y-114808D01*
X4800295Y-106781D01*
X4798110Y-99568D01*
X4794554Y-92862D01*
X4789424Y-86664D01*
X4746040Y-43230D01*
X4743856Y-39979D01*
X4743094Y-36068D01*
X4743856Y-32156D01*
X4746040Y-28905D01*
X4749342Y-26670D01*
X4753254Y-25908D01*
X6199327Y-25908D01*
X6221882Y-26822D01*
X6243269Y-29362D01*
X6264351Y-33629D01*
X6285077Y-39471D01*
X6305245Y-46939D01*
X6324752Y-55981D01*
X6343497Y-66548D01*
X6361379Y-78536D01*
X6378295Y-91846D01*
X6394043Y-106476D01*
X6408623Y-122326D01*
X6421932Y-139242D01*
X6433870Y-157124D01*
X6444335Y-175920D01*
X6453327Y-195478D01*
X6460744Y-215696D01*
X6466586Y-236423D01*
X6470751Y-257505D01*
X6473240Y-278892D01*
X6474104Y-300685D01*
X6474104Y-1269847D01*
X6473240Y-1273911D01*
X6470853Y-1277264D01*
X6467348Y-1279398D01*
X6463233Y-1280007D01*
X6459270Y-1278890D01*
X6452311Y-1275283D01*
X6451447Y-1324813D01*
X6464096Y-1325067D01*
X6467906Y-1325880D01*
X6471158Y-1328115D01*
X6473342Y-1331366D01*
X6474104Y-1335227D01*
X6474104Y-1410157D01*
X6473291Y-1414068D01*
X6471056Y-1417421D01*
X6467703Y-1419606D01*
X6463741Y-1420317D01*
X6449822Y-1420063D01*
X6448958Y-1469593D01*
X6455613Y-1466443D01*
X6458407Y-1464614D01*
X6462471Y-1463141D01*
X6466789Y-1463446D01*
X6470548Y-1465478D01*
X6473139Y-1468983D01*
X6474104Y-1473200D01*
X6474104Y-1526844D01*
X6473139Y-1531112D01*
X6470446Y-1534617D01*
X6466586Y-1536649D01*
X6462166Y-1536852D01*
X6458153Y-1535176D01*
X6454444Y-1532636D01*
X6441846Y-1526133D01*
X6428486Y-1521358D01*
X6414617Y-1518310D01*
X6400495Y-1517142D01*
X6386322Y-1517853D01*
X6372352Y-1520342D01*
X6358839Y-1524711D01*
X6345986Y-1530756D01*
X6334099Y-1538427D01*
X6323279Y-1547571D01*
X6313728Y-1558086D01*
X6305651Y-1569720D01*
X6299149Y-1582318D01*
X6294323Y-1595678D01*
X6291326Y-1609547D01*
X6290157Y-1623669D01*
X6290868Y-1637842D01*
X6293358Y-1651812D01*
X6297676Y-1665325D01*
X6303721Y-1678127D01*
X6311392Y-1690065D01*
X6320586Y-1700885D01*
X6331102Y-1710436D01*
X6342735Y-1718513D01*
X6355334Y-1725015D01*
X6368694Y-1729790D01*
X6382562Y-1732838D01*
X6390995Y-1733499D01*
X6394602Y-1734515D01*
X6397599Y-1736750D01*
X6399580Y-1739950D01*
X6400292Y-1743659D01*
X6400292Y-1863547D01*
X6399326Y-1867916D01*
X6396532Y-1871421D01*
X6392570Y-1873402D01*
X6388100Y-1873504D01*
X6383985Y-1871675D01*
X6381140Y-1868220D01*
X6379870Y-1865884D01*
X6368135Y-1847392D01*
X6354775Y-1830019D01*
X6339992Y-1813915D01*
X6323888Y-1799132D01*
X6306515Y-1785772D01*
X6288024Y-1774037D01*
X6268618Y-1763928D01*
X6248400Y-1755546D01*
X6227521Y-1748942D01*
X6206185Y-1744218D01*
X6184442Y-1741373D01*
X6162598Y-1740407D01*
X6140754Y-1741373D01*
X6119012Y-1744218D01*
X6097676Y-1748942D01*
X6076797Y-1755546D01*
X6056579Y-1763928D01*
X6037173Y-1774037D01*
X6018682Y-1785772D01*
X6001308Y-1799132D01*
X5985205Y-1813915D01*
X5970422Y-1830019D01*
X5957062Y-1847392D01*
X5945327Y-1865884D01*
X5935218Y-1885289D01*
X5926836Y-1905507D01*
X5920232Y-1926386D01*
X5915507Y-1947722D01*
X5912662Y-1969465D01*
X5911697Y-1991309D01*
X5912662Y-2013153D01*
X5915507Y-2034895D01*
X5920232Y-2056231D01*
X5926836Y-2077110D01*
X5935218Y-2097328D01*
X5945327Y-2116734D01*
X5957062Y-2135225D01*
X5970422Y-2152599D01*
X5985205Y-2168702D01*
X6001308Y-2183485D01*
X6018682Y-2196846D01*
X6037173Y-2208580D01*
X6056579Y-2218690D01*
X6076797Y-2227072D01*
X6097676Y-2233676D01*
X6119012Y-2238400D01*
X6140754Y-2241245D01*
X6162598Y-2242210D01*
X6184442Y-2241245D01*
X6206185Y-2238400D01*
X6227521Y-2233676D01*
X6248400Y-2227072D01*
X6268618Y-2218690D01*
X6288024Y-2208580D01*
X6306515Y-2196846D01*
X6323888Y-2183485D01*
X6339992Y-2168702D01*
X6354775Y-2152599D01*
X6368135Y-2135225D01*
X6379870Y-2116734D01*
X6381140Y-2114397D01*
X6383985Y-2110943D01*
X6388100Y-2109114D01*
X6392570Y-2109216D01*
X6396532Y-2111197D01*
X6399326Y-2114702D01*
X6400292Y-2119071D01*
X6400292Y-2722981D01*
X6399530Y-2726893D01*
X6397294Y-2730195D01*
X6197295Y-2930194D01*
X6193993Y-2932430D01*
X6190081Y-2933192D01*
X5761024Y-2933192D01*
X5756910Y-2932328D01*
X5753455Y-2929839D01*
X5751372Y-2926181D01*
X5750915Y-2921965D01*
X5752236Y-2917952D01*
X5755030Y-2914802D01*
X5763463Y-2908706D01*
X5774080Y-2898749D01*
X5783376Y-2887522D01*
X5791149Y-2875229D01*
X5793282Y-2870758D01*
X5740958Y-2870758D01*
X5740958Y-2923032D01*
X5740196Y-2926943D01*
X5737961Y-2930194D01*
X5734659Y-2932430D01*
X5730798Y-2933192D01*
X5648401Y-2933192D01*
X5644540Y-2932430D01*
X5641238Y-2930194D01*
X5639003Y-2926943D01*
X5638241Y-2923032D01*
X5638241Y-2870758D01*
X5585917Y-2870758D01*
X5588050Y-2875229D01*
X5595823Y-2887522D01*
X5605119Y-2898749D01*
X5615736Y-2908706D01*
X5624169Y-2914802D01*
X5626963Y-2917952D01*
X5628284Y-2921965D01*
X5627827Y-2926181D01*
X5625744Y-2929839D01*
X5622290Y-2932328D01*
X5618175Y-2933192D01*
X5507024Y-2933192D01*
X5502910Y-2932328D01*
X5499455Y-2929839D01*
X5497372Y-2926181D01*
X5496915Y-2921965D01*
X5498236Y-2917952D01*
X5501030Y-2914802D01*
X5509463Y-2908706D01*
X5520080Y-2898749D01*
X5529376Y-2887522D01*
X5537149Y-2875229D01*
X5543346Y-2862072D01*
X5547868Y-2848203D01*
X5550560Y-2833928D01*
X5551474Y-2819400D01*
X5550560Y-2804871D01*
X5547868Y-2790596D01*
X5543346Y-2776728D01*
X5537149Y-2763570D01*
X5529376Y-2751277D01*
X5520080Y-2740050D01*
X5509463Y-2730093D01*
X5497677Y-2721559D01*
X5484926Y-2714548D01*
X5471414Y-2709164D01*
X5457291Y-2705557D01*
X5442864Y-2703728D01*
X5428335Y-2703728D01*
X5413908Y-2705557D01*
X5399786Y-2709164D01*
X5391810Y-2712364D01*
X5387949Y-2713075D01*
X5384139Y-2712262D01*
X5380888Y-2710078D01*
X5305806Y-2634996D01*
X5303774Y-2632100D01*
X5302859Y-2628696D01*
X5302148Y-2620670D01*
X5299608Y-2611170D01*
X5295442Y-2602280D01*
X5289804Y-2594203D01*
X5282895Y-2587294D01*
X5274818Y-2581656D01*
X5265928Y-2577490D01*
X5256428Y-2574950D01*
X5246674Y-2574086D01*
X5236870Y-2574950D01*
X5227370Y-2577490D01*
X5218480Y-2581656D01*
X5210403Y-2587294D01*
X5203494Y-2594203D01*
X5197856Y-2602280D01*
X5193690Y-2611170D01*
X5191150Y-2620670D01*
X5190286Y-2630474D01*
X5191150Y-2640228D01*
X5193690Y-2649728D01*
X5197856Y-2658618D01*
X5203494Y-2666695D01*
X5210403Y-2673604D01*
X5218480Y-2679242D01*
X5227370Y-2683408D01*
X5236870Y-2685948D01*
X5244896Y-2686659D01*
X5248300Y-2687574D01*
X5251196Y-2689606D01*
X5326176Y-2764536D01*
X5328412Y-2767990D01*
X5329123Y-2772054D01*
X5327853Y-2776728D01*
X5323332Y-2790596D01*
X5320639Y-2804871D01*
X5319725Y-2819400D01*
X5320639Y-2833928D01*
X5323332Y-2848203D01*
X5327853Y-2862072D01*
X5334050Y-2875229D01*
X5341823Y-2887522D01*
X5351119Y-2898749D01*
X5361736Y-2908706D01*
X5370169Y-2914802D01*
X5372963Y-2917952D01*
X5374284Y-2921965D01*
X5373827Y-2926181D01*
X5371744Y-2929839D01*
X5368290Y-2932328D01*
X5364175Y-2933192D01*
X5253024Y-2933192D01*
X5248910Y-2932328D01*
X5245455Y-2929839D01*
X5243372Y-2926181D01*
X5242915Y-2921965D01*
X5244236Y-2917952D01*
X5247030Y-2914802D01*
X5255463Y-2908706D01*
X5266080Y-2898749D01*
X5275376Y-2887522D01*
X5283149Y-2875229D01*
X5289346Y-2862072D01*
X5293868Y-2848203D01*
X5296560Y-2833928D01*
X5297474Y-2819400D01*
X5296560Y-2804871D01*
X5293868Y-2790596D01*
X5289346Y-2776728D01*
X5283149Y-2763570D01*
X5275376Y-2751277D01*
X5266080Y-2740050D01*
X5255463Y-2730093D01*
X5243677Y-2721559D01*
X5230926Y-2714548D01*
X5217414Y-2709164D01*
X5203291Y-2705557D01*
X5188864Y-2703728D01*
X5174335Y-2703728D01*
X5159908Y-2705557D01*
X5145786Y-2709164D01*
X5132273Y-2714548D01*
X5119522Y-2721559D01*
X5107736Y-2730093D01*
X5097119Y-2740050D01*
X5087823Y-2751277D01*
X5080050Y-2763570D01*
X5073853Y-2776728D01*
X5069332Y-2790596D01*
X5066639Y-2804871D01*
X5065725Y-2819400D01*
X5066639Y-2833928D01*
X5069332Y-2848203D01*
X5073853Y-2862072D01*
X5080050Y-2875229D01*
X5087823Y-2887522D01*
X5097119Y-2898749D01*
X5107736Y-2908706D01*
X5116169Y-2914802D01*
X5118963Y-2917952D01*
X5120284Y-2921965D01*
X5119827Y-2926181D01*
X5117744Y-2929839D01*
X5114290Y-2932328D01*
X5110175Y-2933192D01*
X4999024Y-2933192D01*
X4994910Y-2932328D01*
X4991455Y-2929839D01*
X4989372Y-2926181D01*
X4988915Y-2921965D01*
X4990236Y-2917952D01*
X4993030Y-2914802D01*
X5001463Y-2908706D01*
X5012080Y-2898749D01*
X5021376Y-2887522D01*
X5029149Y-2875229D01*
X5035346Y-2862072D01*
X5039868Y-2848203D01*
X5042560Y-2833928D01*
X5043474Y-2819400D01*
X5042560Y-2804871D01*
X5039868Y-2790596D01*
X5035346Y-2776728D01*
X5029149Y-2763570D01*
X5021376Y-2751277D01*
X5012080Y-2740050D01*
X5001463Y-2730093D01*
X4989677Y-2721559D01*
X4976926Y-2714548D01*
X4963414Y-2709164D01*
X4949291Y-2705557D01*
X4934864Y-2703728D01*
X4920335Y-2703728D01*
X4905908Y-2705557D01*
X4891786Y-2709164D01*
X4878273Y-2714548D01*
X4865522Y-2721559D01*
X4853736Y-2730093D01*
X4843119Y-2740050D01*
X4833823Y-2751277D01*
X4826050Y-2763570D01*
X4819853Y-2776728D01*
X4815332Y-2790596D01*
X4812639Y-2804871D01*
X4811725Y-2819400D01*
X4812639Y-2833928D01*
X4815332Y-2848203D01*
X4819853Y-2862072D01*
X4826050Y-2875229D01*
X4833823Y-2887522D01*
X4843119Y-2898749D01*
X4853736Y-2908706D01*
X4862169Y-2914802D01*
X4864963Y-2917952D01*
X4866284Y-2921965D01*
X4865827Y-2926181D01*
X4863744Y-2929839D01*
X4860290Y-2932328D01*
X4856175Y-2933192D01*
X4745024Y-2933192D01*
X4740910Y-2932328D01*
X4737455Y-2929839D01*
X4735372Y-2926181D01*
X4734915Y-2921965D01*
X4736236Y-2917952D01*
X4739030Y-2914802D01*
X4747463Y-2908706D01*
X4758080Y-2898749D01*
X4767376Y-2887522D01*
X4775149Y-2875229D01*
X4781346Y-2862072D01*
X4785868Y-2848203D01*
X4788560Y-2833928D01*
X4789474Y-2819400D01*
X4788560Y-2804871D01*
X4785868Y-2790596D01*
X4781346Y-2776728D01*
X4775149Y-2763570D01*
X4767376Y-2751277D01*
X4758080Y-2740050D01*
X4747463Y-2730093D01*
X4735677Y-2721559D01*
X4722926Y-2714548D01*
X4709414Y-2709164D01*
X4695291Y-2705557D01*
X4680864Y-2703728D01*
X4666335Y-2703728D01*
X4651908Y-2705557D01*
X4637786Y-2709164D01*
X4624273Y-2714548D01*
X4611522Y-2721559D01*
X4599736Y-2730093D01*
X4589119Y-2740050D01*
X4579823Y-2751277D01*
X4572050Y-2763570D01*
X4565853Y-2776728D01*
X4561332Y-2790596D01*
X4558639Y-2804871D01*
X4557725Y-2819400D01*
X4558639Y-2833928D01*
X4561332Y-2848203D01*
X4565853Y-2862072D01*
X4572050Y-2875229D01*
X4579823Y-2887522D01*
X4589119Y-2898749D01*
X4599736Y-2908706D01*
X4608169Y-2914802D01*
X4610963Y-2917952D01*
X4612284Y-2921965D01*
X4611827Y-2926181D01*
X4609744Y-2929839D01*
X4606290Y-2932328D01*
X4602175Y-2933192D01*
X4491024Y-2933192D01*
X4486910Y-2932328D01*
X4483455Y-2929839D01*
X4481372Y-2926181D01*
X4480915Y-2921965D01*
X4482236Y-2917952D01*
X4485030Y-2914802D01*
X4493463Y-2908706D01*
X4504080Y-2898749D01*
X4513376Y-2887522D01*
X4521149Y-2875229D01*
X4527346Y-2862072D01*
X4531868Y-2848203D01*
X4534560Y-2833928D01*
X4535474Y-2819400D01*
X4534560Y-2804871D01*
X4531868Y-2790596D01*
X4527346Y-2776728D01*
X4521149Y-2763570D01*
X4513376Y-2751277D01*
X4504080Y-2740050D01*
X4493463Y-2730093D01*
X4481677Y-2721559D01*
X4468926Y-2714548D01*
X4455414Y-2709164D01*
X4441291Y-2705557D01*
X4426864Y-2703728D01*
X4412335Y-2703728D01*
X4397908Y-2705557D01*
X4383786Y-2709164D01*
X4370273Y-2714548D01*
X4357522Y-2721559D01*
X4345736Y-2730093D01*
X4335119Y-2740050D01*
X4325823Y-2751277D01*
X4318050Y-2763570D01*
X4311853Y-2776728D01*
X4307332Y-2790596D01*
X4304639Y-2804871D01*
X4303725Y-2819400D01*
X4304639Y-2833928D01*
X4307332Y-2848203D01*
X4311853Y-2862072D01*
X4318050Y-2875229D01*
X4325823Y-2887522D01*
X4335119Y-2898749D01*
X4345736Y-2908706D01*
X4354169Y-2914802D01*
X4356963Y-2917952D01*
X4358284Y-2921965D01*
X4357827Y-2926181D01*
X4355744Y-2929839D01*
X4352290Y-2932328D01*
X4348175Y-2933192D01*
X4237024Y-2933192D01*
X4232910Y-2932328D01*
X4229455Y-2929839D01*
X4227372Y-2926181D01*
X4226915Y-2921965D01*
X4228236Y-2917952D01*
X4231030Y-2914802D01*
X4239463Y-2908706D01*
X4250080Y-2898749D01*
X4259376Y-2887522D01*
X4267149Y-2875229D01*
X4273346Y-2862072D01*
X4277868Y-2848203D01*
X4280560Y-2833928D01*
X4281474Y-2819400D01*
X4280560Y-2804871D01*
X4277868Y-2790596D01*
X4273346Y-2776728D01*
X4272076Y-2772054D01*
X4272788Y-2767990D01*
X4275023Y-2764536D01*
X4390288Y-2649321D01*
X4393996Y-2646984D01*
X4398314Y-2646375D01*
X4406900Y-2647137D01*
X4416704Y-2646273D01*
X4426153Y-2643733D01*
X4435094Y-2639618D01*
X4443120Y-2633980D01*
X4450080Y-2627020D01*
X4455718Y-2618994D01*
X4459833Y-2610053D01*
X4462373Y-2600604D01*
X4463237Y-2590800D01*
X4462373Y-2580995D01*
X4459833Y-2571546D01*
X4455718Y-2562606D01*
X4450080Y-2554579D01*
X4443120Y-2547620D01*
X4435094Y-2541981D01*
X4426153Y-2537866D01*
X4416704Y-2535326D01*
X4406900Y-2534462D01*
X4397095Y-2535326D01*
X4387646Y-2537866D01*
X4378706Y-2541981D01*
X4370679Y-2547620D01*
X4363720Y-2554579D01*
X4358081Y-2562606D01*
X4353966Y-2571546D01*
X4352848Y-2575610D01*
X4351832Y-2578049D01*
X4350207Y-2580182D01*
X4220311Y-2710078D01*
X4217060Y-2712262D01*
X4213250Y-2713075D01*
X4209389Y-2712364D01*
X4201414Y-2709164D01*
X4187291Y-2705557D01*
X4172864Y-2703728D01*
X4158335Y-2703728D01*
X4143908Y-2705557D01*
X4129786Y-2709164D01*
X4116273Y-2714548D01*
X4103522Y-2721559D01*
X4091736Y-2730093D01*
X4081119Y-2740050D01*
X4071823Y-2751277D01*
X4064050Y-2763570D01*
X4057853Y-2776728D01*
X4053332Y-2790596D01*
X4050639Y-2804871D01*
X4049725Y-2819400D01*
X4050639Y-2833928D01*
X4053332Y-2848203D01*
X4057853Y-2862072D01*
X4064050Y-2875229D01*
X4071823Y-2887522D01*
X4081119Y-2898749D01*
X4091736Y-2908706D01*
X4100169Y-2914802D01*
X4102963Y-2917952D01*
X4104284Y-2921965D01*
X4103827Y-2926181D01*
X4101744Y-2929839D01*
X4098290Y-2932328D01*
X4094175Y-2933192D01*
X4034790Y-2933192D01*
X4031030Y-2932480D01*
X4027779Y-2930398D01*
X4025544Y-2927248D01*
X4024629Y-2923489D01*
X4025188Y-2919679D01*
X4026814Y-2915158D01*
X4027525Y-2908808D01*
X4027525Y-2729992D01*
X4026814Y-2723642D01*
X4024884Y-2718206D01*
X4021785Y-2713278D01*
X4017721Y-2709214D01*
X4012793Y-2706116D01*
X4007358Y-2704185D01*
X4001008Y-2703474D01*
X3822192Y-2703474D01*
X3815842Y-2704185D01*
X3810406Y-2706116D01*
X3805478Y-2709214D01*
X3801414Y-2713278D01*
X3798315Y-2718206D01*
X3796385Y-2723642D01*
X3795674Y-2729992D01*
X3795674Y-2908808D01*
X3796385Y-2915158D01*
X3798011Y-2919679D01*
X3798570Y-2923489D01*
X3797655Y-2927248D01*
X3795420Y-2930398D01*
X3792169Y-2932480D01*
X3788410Y-2933192D01*
X3539642Y-2933192D01*
X3535781Y-2932430D01*
X3532479Y-2930194D01*
X3530244Y-2926943D01*
X3529482Y-2923032D01*
X3529482Y-2818282D01*
X3528720Y-2810256D01*
X3526536Y-2803042D01*
X3522929Y-2796387D01*
X3517849Y-2790139D01*
X3336290Y-2608630D01*
X3334258Y-2605684D01*
X3333343Y-2602280D01*
X3332632Y-2593898D01*
X3330244Y-2584551D01*
X3326231Y-2575763D01*
X3320846Y-2567787D01*
X3314192Y-2560828D01*
X3306419Y-2555087D01*
X3297783Y-2550718D01*
X3288588Y-2547924D01*
X3279038Y-2546654D01*
X3269386Y-2547112D01*
X3259937Y-2549144D01*
X3250996Y-2552700D01*
X3242767Y-2557780D01*
X3235553Y-2564130D01*
X3229457Y-2571648D01*
X3224784Y-2580081D01*
X3221583Y-2589174D01*
X3219958Y-2598674D01*
X3219958Y-2608326D01*
X3221583Y-2617825D01*
X3224784Y-2626918D01*
X3229457Y-2635351D01*
X3235553Y-2642870D01*
X3242767Y-2649220D01*
X3250996Y-2654300D01*
X3259937Y-2657856D01*
X3269386Y-2659888D01*
X3274872Y-2660142D01*
X3278530Y-2661005D01*
X3281629Y-2663088D01*
X3449320Y-2830779D01*
X3451504Y-2834081D01*
X3452266Y-2837992D01*
X3452266Y-2971292D01*
X3453079Y-2979318D01*
X3455263Y-2986532D01*
X3458819Y-2993237D01*
X3463645Y-2999079D01*
X3469487Y-3003854D01*
X3471519Y-3004972D01*
X3474923Y-3007868D01*
X3476701Y-3011932D01*
X3476599Y-3016402D01*
X3474618Y-3020364D01*
X3471062Y-3023108D01*
X3466744Y-3024073D01*
G37*

%LPC*%
G36*
X470204Y-1602943D02*
G01*
X524764Y-1602943D01*
X524764Y-1578051D01*
X495350Y-1578000D01*
X490524Y-1576933D01*
X487476Y-1574698D01*
X485444Y-1571498D01*
X484733Y-1567789D01*
X484733Y-1508150D01*
X418338Y-1508150D01*
X423875Y-1518208D01*
X431190Y-1528064D01*
X439877Y-1536700D01*
X449681Y-1544066D01*
X460400Y-1549908D01*
X472592Y-1554327D01*
X476504Y-1556156D01*
X479348Y-1559407D01*
X480568Y-1563573D01*
X479958Y-1567840D01*
X477621Y-1571447D01*
X475894Y-1573174D01*
X472795Y-1578102D01*
X470916Y-1583537D01*
X470204Y-1589836D01*
G37*
G36*
X1229461Y-163677D02*
G01*
X1283462Y-163677D01*
X1283462Y-109880D01*
X1280109Y-111404D01*
X1267561Y-119176D01*
X1256030Y-128422D01*
X1245768Y-139039D01*
X1236878Y-150825D01*
G37*
G36*
X4946142Y-163677D02*
G01*
X5000142Y-163677D01*
X4992725Y-150825D01*
X4983835Y-139039D01*
X4973574Y-128422D01*
X4962042Y-119176D01*
X4949494Y-111404D01*
X4946142Y-109880D01*
G37*
G36*
X1390142Y-163677D02*
G01*
X1444142Y-163677D01*
X1436725Y-150825D01*
X1427835Y-139039D01*
X1417574Y-128422D01*
X1406042Y-119176D01*
X1393494Y-111404D01*
X1390142Y-109880D01*
G37*
G36*
X4946142Y-324154D02*
G01*
X4955895Y-318922D01*
X4967935Y-310388D01*
X4978857Y-300482D01*
X4988458Y-289255D01*
X4996586Y-276961D01*
X4999888Y-270357D01*
X4946142Y-270357D01*
G37*
G36*
X1390142Y-324154D02*
G01*
X1399895Y-318922D01*
X1411935Y-310388D01*
X1422857Y-300482D01*
X1432458Y-289255D01*
X1440586Y-276961D01*
X1443888Y-270357D01*
X1390142Y-270357D01*
G37*
G36*
X1283462Y-324154D02*
G01*
X1283462Y-270357D01*
X1229715Y-270357D01*
X1233017Y-276961D01*
X1241145Y-289255D01*
X1250746Y-300482D01*
X1261668Y-310388D01*
X1273708Y-318922D01*
G37*
G36*
X5708142Y-417677D02*
G01*
X5762142Y-417677D01*
X5754725Y-404774D01*
X5745835Y-392988D01*
X5735574Y-382422D01*
X5724042Y-373176D01*
X5711494Y-365404D01*
X5708142Y-363829D01*
G37*
G36*
X5547461Y-417677D02*
G01*
X5601462Y-417677D01*
X5601462Y-363829D01*
X5598109Y-365404D01*
X5585561Y-373176D01*
X5574030Y-382422D01*
X5563768Y-392988D01*
X5554878Y-404774D01*
G37*
G36*
X337464Y-507339D02*
G01*
X354838Y-506831D01*
X372059Y-504545D01*
X388975Y-500430D01*
X405333Y-494538D01*
X420979Y-486918D01*
X435711Y-477672D01*
X449376Y-466953D01*
X461873Y-454812D01*
X472948Y-441451D01*
X482549Y-426923D01*
X490575Y-411480D01*
X496925Y-395325D01*
X501497Y-378510D01*
X504240Y-361340D01*
X505206Y-344017D01*
X504240Y-326644D01*
X501497Y-309473D01*
X496925Y-292658D01*
X490575Y-276504D01*
X482549Y-261061D01*
X472948Y-246532D01*
X461873Y-233171D01*
X449376Y-221030D01*
X435711Y-210312D01*
X420979Y-201066D01*
X405333Y-193446D01*
X388975Y-187553D01*
X372059Y-183438D01*
X354838Y-181152D01*
X337464Y-180644D01*
X320141Y-182067D01*
X303022Y-185267D01*
X286359Y-190296D01*
X270357Y-197053D01*
X255168Y-205486D01*
X240893Y-215493D01*
X227838Y-226923D01*
X216052Y-239725D01*
X205638Y-253695D01*
X196850Y-268681D01*
X189636Y-284480D01*
X184200Y-300990D01*
X180492Y-318008D01*
X178663Y-335280D01*
X178663Y-352704D01*
X180492Y-369976D01*
X184200Y-386994D01*
X189636Y-403504D01*
X196850Y-419303D01*
X205638Y-434289D01*
X216052Y-448259D01*
X227838Y-461060D01*
X240893Y-472490D01*
X255168Y-482498D01*
X270357Y-490931D01*
X286359Y-497687D01*
X303022Y-502716D01*
X320141Y-505917D01*
G37*
G36*
X6137452Y-507339D02*
G01*
X6154826Y-506831D01*
X6172047Y-504545D01*
X6188964Y-500430D01*
X6205321Y-494538D01*
X6220968Y-486918D01*
X6235700Y-477672D01*
X6249365Y-466953D01*
X6261862Y-454812D01*
X6272936Y-441451D01*
X6282537Y-426923D01*
X6290564Y-411480D01*
X6296914Y-395325D01*
X6301486Y-378510D01*
X6304229Y-361340D01*
X6305194Y-344017D01*
X6304229Y-326644D01*
X6301486Y-309473D01*
X6296914Y-292658D01*
X6290564Y-276504D01*
X6282537Y-261061D01*
X6272936Y-246532D01*
X6261862Y-233171D01*
X6249365Y-221030D01*
X6235700Y-210312D01*
X6220968Y-201066D01*
X6205321Y-193446D01*
X6188964Y-187553D01*
X6172047Y-183438D01*
X6154826Y-181152D01*
X6137452Y-180644D01*
X6120130Y-182067D01*
X6103010Y-185267D01*
X6086348Y-190296D01*
X6070346Y-197053D01*
X6055156Y-205486D01*
X6040882Y-215493D01*
X6027826Y-226923D01*
X6016040Y-239725D01*
X6005626Y-253695D01*
X5996838Y-268681D01*
X5989624Y-284480D01*
X5984189Y-300990D01*
X5980480Y-318008D01*
X5978652Y-335280D01*
X5978652Y-352704D01*
X5980480Y-369976D01*
X5984189Y-386994D01*
X5989624Y-403504D01*
X5996838Y-419303D01*
X6005626Y-434289D01*
X6016040Y-448259D01*
X6027826Y-461060D01*
X6040882Y-472490D01*
X6055156Y-482498D01*
X6070346Y-490931D01*
X6086348Y-497687D01*
X6103010Y-502716D01*
X6120130Y-505917D01*
G37*
G36*
X761492Y-2909925D02*
G01*
X940308Y-2909925D01*
X946658Y-2909214D01*
X952093Y-2907284D01*
X957021Y-2904185D01*
X961085Y-2900121D01*
X964184Y-2895193D01*
X966114Y-2889758D01*
X966825Y-2883408D01*
X966825Y-2704592D01*
X966114Y-2698242D01*
X964184Y-2692806D01*
X961085Y-2687878D01*
X957021Y-2683814D01*
X952093Y-2680716D01*
X946658Y-2678785D01*
X940308Y-2678074D01*
X761492Y-2678074D01*
X755142Y-2678785D01*
X749706Y-2680716D01*
X744778Y-2683814D01*
X740714Y-2687878D01*
X737616Y-2692806D01*
X735685Y-2698242D01*
X734974Y-2704592D01*
X734974Y-2883408D01*
X735685Y-2889758D01*
X737616Y-2895193D01*
X740714Y-2900121D01*
X744778Y-2904185D01*
X749706Y-2907284D01*
X755142Y-2909214D01*
G37*
G36*
X5708142Y-578154D02*
G01*
X5717895Y-572922D01*
X5729935Y-564388D01*
X5740857Y-554431D01*
X5750458Y-543204D01*
X5758586Y-530910D01*
X5761888Y-524357D01*
X5708142Y-524357D01*
G37*
G36*
X5601462Y-578154D02*
G01*
X5601462Y-524357D01*
X5547715Y-524357D01*
X5551017Y-530910D01*
X5559145Y-543204D01*
X5568746Y-554431D01*
X5579668Y-564388D01*
X5591708Y-572922D01*
G37*
G36*
X1506220Y-1198778D02*
G01*
X1512824Y-1195527D01*
X1524203Y-1187907D01*
X1534464Y-1178915D01*
X1543507Y-1168603D01*
X1551127Y-1157224D01*
X1554378Y-1150620D01*
X1506220Y-1150620D01*
G37*
G36*
X1410258Y-2897733D02*
G01*
X1420977Y-2891840D01*
X1432763Y-2883306D01*
X1443380Y-2873349D01*
X1452676Y-2862122D01*
X1460449Y-2849829D01*
X1462582Y-2845358D01*
X1410258Y-2845358D01*
G37*
G36*
X1307541Y-2897733D02*
G01*
X1307541Y-2845358D01*
X1255217Y-2845358D01*
X1257350Y-2849829D01*
X1265123Y-2862122D01*
X1274419Y-2873349D01*
X1285036Y-2883306D01*
X1296822Y-2891840D01*
G37*
G36*
X3085541Y-2897733D02*
G01*
X3085541Y-2845358D01*
X3033217Y-2845358D01*
X3035350Y-2849829D01*
X3043123Y-2862122D01*
X3052419Y-2873349D01*
X3063036Y-2883306D01*
X3074822Y-2891840D01*
G37*
G36*
X3188258Y-2897733D02*
G01*
X3198977Y-2891840D01*
X3210763Y-2883306D01*
X3221380Y-2873349D01*
X3230676Y-2862122D01*
X3238449Y-2849829D01*
X3240582Y-2845358D01*
X3188258Y-2845358D01*
G37*
G36*
X1414780Y-1198778D02*
G01*
X1414780Y-1150620D01*
X1366621Y-1150620D01*
X1369872Y-1157224D01*
X1377492Y-1168603D01*
X1386535Y-1178915D01*
X1396796Y-1187907D01*
X1408176Y-1195527D01*
G37*
G36*
X6162598Y-1282192D02*
G01*
X6184442Y-1281226D01*
X6206185Y-1278382D01*
X6227521Y-1273657D01*
X6248400Y-1267053D01*
X6268618Y-1258671D01*
X6288024Y-1248562D01*
X6306515Y-1236827D01*
X6323888Y-1223467D01*
X6339992Y-1208684D01*
X6354775Y-1192580D01*
X6368135Y-1175207D01*
X6379870Y-1156716D01*
X6389979Y-1137310D01*
X6398361Y-1117092D01*
X6404965Y-1096213D01*
X6409690Y-1074877D01*
X6412534Y-1053134D01*
X6413500Y-1031290D01*
X6412534Y-1009446D01*
X6409690Y-987704D01*
X6404965Y-966368D01*
X6398361Y-945489D01*
X6389979Y-925271D01*
X6379870Y-905865D01*
X6368135Y-887374D01*
X6354775Y-870000D01*
X6339992Y-853897D01*
X6323888Y-839114D01*
X6306515Y-825753D01*
X6288024Y-814019D01*
X6268618Y-803910D01*
X6248400Y-795528D01*
X6227521Y-788924D01*
X6206185Y-784199D01*
X6184442Y-781354D01*
X6162598Y-780389D01*
X6140754Y-781354D01*
X6119012Y-784199D01*
X6097676Y-788924D01*
X6076797Y-795528D01*
X6056579Y-803910D01*
X6037173Y-814019D01*
X6018682Y-825753D01*
X6001308Y-839114D01*
X5985205Y-853897D01*
X5970422Y-870000D01*
X5957062Y-887374D01*
X5945327Y-905865D01*
X5935218Y-925271D01*
X5926836Y-945489D01*
X5920232Y-966368D01*
X5915507Y-987704D01*
X5912662Y-1009446D01*
X5911697Y-1031290D01*
X5912662Y-1053134D01*
X5915507Y-1074877D01*
X5920232Y-1096213D01*
X5926836Y-1117092D01*
X5935218Y-1137310D01*
X5945327Y-1156716D01*
X5957062Y-1175207D01*
X5970422Y-1192580D01*
X5985205Y-1208684D01*
X6001308Y-1223467D01*
X6018682Y-1236827D01*
X6037173Y-1248562D01*
X6056579Y-1258671D01*
X6076797Y-1267053D01*
X6097676Y-1273657D01*
X6119012Y-1278382D01*
X6140754Y-1281226D01*
G37*
G36*
X6137452Y-2807309D02*
G01*
X6154826Y-2806852D01*
X6172047Y-2804566D01*
X6188964Y-2800400D01*
X6205321Y-2794508D01*
X6220968Y-2786888D01*
X6235700Y-2777693D01*
X6249365Y-2766923D01*
X6261862Y-2754833D01*
X6272936Y-2741422D01*
X6282537Y-2726944D01*
X6290564Y-2711500D01*
X6296914Y-2695295D01*
X6301486Y-2678531D01*
X6304229Y-2661361D01*
X6305194Y-2643987D01*
X6304229Y-2626614D01*
X6301486Y-2609443D01*
X6296914Y-2592679D01*
X6290564Y-2576474D01*
X6282537Y-2561031D01*
X6272936Y-2546553D01*
X6261862Y-2533142D01*
X6249365Y-2521051D01*
X6235700Y-2510282D01*
X6220968Y-2501087D01*
X6205321Y-2493467D01*
X6188964Y-2487574D01*
X6172047Y-2483408D01*
X6154826Y-2481122D01*
X6137452Y-2480665D01*
X6120130Y-2482037D01*
X6103010Y-2485288D01*
X6086348Y-2490317D01*
X6070346Y-2497074D01*
X6055156Y-2505506D01*
X6040882Y-2515463D01*
X6027826Y-2526944D01*
X6016040Y-2539695D01*
X6005626Y-2553665D01*
X5996838Y-2568651D01*
X5989624Y-2584500D01*
X5984189Y-2601010D01*
X5980480Y-2617978D01*
X5978652Y-2635300D01*
X5978652Y-2652674D01*
X5980480Y-2669997D01*
X5984189Y-2686964D01*
X5989624Y-2703474D01*
X5996838Y-2719324D01*
X6005626Y-2734310D01*
X6016040Y-2748280D01*
X6027826Y-2761030D01*
X6040882Y-2772511D01*
X6055156Y-2782468D01*
X6070346Y-2790901D01*
X6086348Y-2797657D01*
X6103010Y-2802686D01*
X6120130Y-2805938D01*
G37*
G36*
X337464Y-2807309D02*
G01*
X354838Y-2806852D01*
X372059Y-2804566D01*
X388975Y-2800400D01*
X405333Y-2794508D01*
X420979Y-2786888D01*
X435711Y-2777693D01*
X449376Y-2766923D01*
X461873Y-2754833D01*
X472948Y-2741422D01*
X482549Y-2726944D01*
X490575Y-2711500D01*
X496925Y-2695295D01*
X501497Y-2678531D01*
X504240Y-2661361D01*
X505206Y-2643987D01*
X504240Y-2626614D01*
X501497Y-2609443D01*
X496925Y-2592679D01*
X490575Y-2576474D01*
X482549Y-2561031D01*
X472948Y-2546553D01*
X461873Y-2533142D01*
X449376Y-2521051D01*
X435711Y-2510282D01*
X420979Y-2501087D01*
X405333Y-2493467D01*
X388975Y-2487574D01*
X372059Y-2483408D01*
X354838Y-2481122D01*
X337464Y-2480665D01*
X320141Y-2482037D01*
X303022Y-2485288D01*
X286359Y-2490317D01*
X270357Y-2497074D01*
X255168Y-2505506D01*
X240893Y-2515463D01*
X227838Y-2526944D01*
X216052Y-2539695D01*
X205638Y-2553665D01*
X196850Y-2568651D01*
X189636Y-2584500D01*
X184200Y-2601010D01*
X180492Y-2617978D01*
X178663Y-2635300D01*
X178663Y-2652674D01*
X180492Y-2669997D01*
X184200Y-2686964D01*
X189636Y-2703474D01*
X196850Y-2719324D01*
X205638Y-2734310D01*
X216052Y-2748280D01*
X227838Y-2761030D01*
X240893Y-2772511D01*
X255168Y-2782468D01*
X270357Y-2790901D01*
X286359Y-2797657D01*
X303022Y-2802686D01*
X320141Y-2805938D01*
G37*
G36*
X5740958Y-2768041D02*
G01*
X5793282Y-2768041D01*
X5791149Y-2763570D01*
X5783376Y-2751277D01*
X5774080Y-2740050D01*
X5763463Y-2730093D01*
X5751677Y-2721559D01*
X5740958Y-2715666D01*
G37*
G36*
X5585917Y-2768041D02*
G01*
X5638241Y-2768041D01*
X5638241Y-2715666D01*
X5627522Y-2721559D01*
X5615736Y-2730093D01*
X5605119Y-2740050D01*
X5595823Y-2751277D01*
X5588050Y-2763570D01*
G37*
G36*
X3188258Y-2742641D02*
G01*
X3240582Y-2742641D01*
X3238449Y-2738170D01*
X3230676Y-2725877D01*
X3221380Y-2714650D01*
X3210763Y-2704693D01*
X3198977Y-2696159D01*
X3188258Y-2690266D01*
G37*
G36*
X3033217Y-2742641D02*
G01*
X3085541Y-2742641D01*
X3085541Y-2690266D01*
X3074822Y-2696159D01*
X3063036Y-2704693D01*
X3052419Y-2714650D01*
X3043123Y-2725877D01*
X3035350Y-2738170D01*
G37*
G36*
X6356248Y-1323187D02*
G01*
X6357112Y-1273657D01*
X6350457Y-1276756D01*
X6338519Y-1284478D01*
X6327698Y-1293622D01*
X6318148Y-1304137D01*
X6310071Y-1315770D01*
X6306718Y-1322324D01*
G37*
G36*
X227431Y-1435455D02*
G01*
X293878Y-1435455D01*
X288340Y-1425346D01*
X281025Y-1415542D01*
X272338Y-1406906D01*
X262534Y-1399540D01*
X251764Y-1393698D01*
X240284Y-1389380D01*
X228346Y-1386789D01*
X227431Y-1386738D01*
G37*
G36*
X607466Y-1435455D02*
G01*
X673862Y-1435455D01*
X668324Y-1425346D01*
X661009Y-1415542D01*
X652322Y-1406906D01*
X642518Y-1399540D01*
X631799Y-1393698D01*
X620318Y-1389380D01*
X607466Y-1386738D01*
G37*
G36*
X418338Y-1435455D02*
G01*
X484733Y-1435455D01*
X484733Y-1386738D01*
X471881Y-1389380D01*
X460400Y-1393698D01*
X449681Y-1399540D01*
X439877Y-1406906D01*
X431190Y-1415542D01*
X423875Y-1425346D01*
G37*
G36*
X6353708Y-1467916D02*
G01*
X6354572Y-1418386D01*
X6305042Y-1417523D01*
X6308191Y-1424178D01*
X6315862Y-1436116D01*
X6325006Y-1446936D01*
X6335522Y-1456486D01*
X6347155Y-1464564D01*
G37*
G36*
X227431Y-1556867D02*
G01*
X228346Y-1556816D01*
X240284Y-1554226D01*
X251764Y-1549908D01*
X262534Y-1544066D01*
X272338Y-1536700D01*
X281025Y-1528064D01*
X288340Y-1518208D01*
X293878Y-1508150D01*
X227431Y-1508150D01*
G37*
G36*
X607466Y-1602943D02*
G01*
X662025Y-1602943D01*
X662025Y-1589836D01*
X661263Y-1583537D01*
X659384Y-1578102D01*
X656285Y-1573174D01*
X652221Y-1569110D01*
X647293Y-1566011D01*
X641451Y-1563979D01*
X638098Y-1561998D01*
X635762Y-1558950D01*
X634695Y-1555191D01*
X635101Y-1551330D01*
X636981Y-1547926D01*
X639978Y-1545437D01*
X642518Y-1544066D01*
X652322Y-1536700D01*
X661009Y-1528064D01*
X668324Y-1518208D01*
X673862Y-1508150D01*
X607466Y-1508150D01*
G37*
G36*
X607466Y-1695196D02*
G01*
X635508Y-1695196D01*
X641858Y-1694484D01*
X647293Y-1692554D01*
X652221Y-1689506D01*
X656285Y-1685391D01*
X659384Y-1680514D01*
X661263Y-1675028D01*
X662025Y-1668729D01*
X662025Y-1655622D01*
X607466Y-1655622D01*
G37*
G36*
X496671Y-1695196D02*
G01*
X524764Y-1695196D01*
X524764Y-1655622D01*
X470204Y-1655622D01*
X470204Y-1668729D01*
X470916Y-1675028D01*
X472795Y-1680514D01*
X475894Y-1685391D01*
X479958Y-1689506D01*
X484885Y-1692554D01*
X490321Y-1694484D01*
G37*
G36*
X1506220Y-1821180D02*
G01*
X1554378Y-1821180D01*
X1551127Y-1814575D01*
X1543507Y-1803196D01*
X1534464Y-1792935D01*
X1524203Y-1783892D01*
X1512824Y-1776272D01*
X1506220Y-1773021D01*
G37*
G36*
X1366621Y-1821180D02*
G01*
X1414780Y-1821180D01*
X1414780Y-1773021D01*
X1408176Y-1776272D01*
X1396796Y-1783892D01*
X1386535Y-1792935D01*
X1377492Y-1803196D01*
X1369872Y-1814575D01*
G37*
G36*
X227431Y-2421890D02*
G01*
X240284Y-2419197D01*
X251764Y-2414930D01*
X262534Y-2409037D01*
X272338Y-2401722D01*
X281025Y-2393035D01*
X288340Y-2383231D01*
X293878Y-2373172D01*
X227431Y-2373172D01*
G37*
G36*
X484733Y-2421890D02*
G01*
X484733Y-2373172D01*
X418338Y-2373172D01*
X423875Y-2383231D01*
X431190Y-2393035D01*
X439877Y-2401722D01*
X449681Y-2409037D01*
X460400Y-2414930D01*
X471881Y-2419197D01*
G37*
G36*
X1506220Y-1960778D02*
G01*
X1512824Y-1957527D01*
X1524203Y-1949907D01*
X1534464Y-1940864D01*
X1543507Y-1930603D01*
X1551127Y-1919224D01*
X1554378Y-1912620D01*
X1506220Y-1912620D01*
G37*
G36*
X1414780Y-1960778D02*
G01*
X1414780Y-1912620D01*
X1366621Y-1912620D01*
X1369872Y-1919224D01*
X1377492Y-1930603D01*
X1386535Y-1940864D01*
X1396796Y-1949907D01*
X1408176Y-1957527D01*
G37*
G36*
X1460500Y-2225548D02*
G01*
X1474165Y-2224633D01*
X1487576Y-2221992D01*
X1500530Y-2217572D01*
X1512824Y-2211527D01*
X1524203Y-2203907D01*
X1534464Y-2194864D01*
X1543507Y-2184603D01*
X1551127Y-2173224D01*
X1557172Y-2160930D01*
X1561592Y-2147976D01*
X1564233Y-2134565D01*
X1565148Y-2120900D01*
X1564233Y-2107234D01*
X1561592Y-2093823D01*
X1557172Y-2080869D01*
X1551127Y-2068575D01*
X1543507Y-2057196D01*
X1534464Y-2046935D01*
X1524203Y-2037892D01*
X1512824Y-2030272D01*
X1500530Y-2024227D01*
X1487576Y-2019807D01*
X1474165Y-2017166D01*
X1460500Y-2016252D01*
X1446834Y-2017166D01*
X1436319Y-2019249D01*
X1431899Y-2019147D01*
X1427886Y-2017115D01*
X1422450Y-2013305D01*
X1418539Y-2011273D01*
X1414424Y-2009546D01*
X1410208Y-2008225D01*
X1405839Y-2007260D01*
X1401470Y-2006701D01*
X1396796Y-2006498D01*
X665886Y-2006498D01*
X662533Y-2005939D01*
X659536Y-2004263D01*
X656285Y-2000199D01*
X652221Y-1996084D01*
X647293Y-1993036D01*
X641858Y-1991106D01*
X635508Y-1990394D01*
X496671Y-1990394D01*
X490321Y-1991106D01*
X484885Y-1993036D01*
X479958Y-1996084D01*
X475894Y-2000199D01*
X472795Y-2005075D01*
X470916Y-2010562D01*
X470204Y-2016861D01*
X470204Y-2095754D01*
X470916Y-2102053D01*
X472795Y-2107539D01*
X475894Y-2112416D01*
X477266Y-2115921D01*
X477266Y-2119680D01*
X475894Y-2123186D01*
X472795Y-2128062D01*
X470916Y-2133549D01*
X470204Y-2139848D01*
X470204Y-2152954D01*
X524764Y-2152954D01*
X524764Y-2132380D01*
X525526Y-2128469D01*
X527710Y-2125218D01*
X531012Y-2122982D01*
X534924Y-2122220D01*
X597306Y-2122220D01*
X601167Y-2122982D01*
X604469Y-2125218D01*
X606653Y-2128469D01*
X607466Y-2132380D01*
X607466Y-2152954D01*
X662025Y-2152954D01*
X662025Y-2139848D01*
X661263Y-2133549D01*
X659384Y-2128062D01*
X656742Y-2123897D01*
X655269Y-2119833D01*
X655624Y-2115566D01*
X657707Y-2111806D01*
X661111Y-2109216D01*
X665327Y-2108301D01*
X1345844Y-2108301D01*
X1349857Y-2109165D01*
X1353261Y-2111502D01*
X1355394Y-2115058D01*
X1356004Y-2119122D01*
X1355852Y-2120900D01*
X1356766Y-2134565D01*
X1359408Y-2147976D01*
X1363827Y-2160930D01*
X1369872Y-2173224D01*
X1377492Y-2184603D01*
X1386535Y-2194864D01*
X1396796Y-2203907D01*
X1408176Y-2211527D01*
X1420469Y-2217572D01*
X1433423Y-2221992D01*
X1446834Y-2224633D01*
G37*
G36*
X418338Y-2300427D02*
G01*
X484733Y-2300427D01*
X484733Y-2240838D01*
X485444Y-2237079D01*
X487476Y-2233879D01*
X490524Y-2231644D01*
X496112Y-2230577D01*
X524764Y-2230577D01*
X524764Y-2205634D01*
X470204Y-2205634D01*
X470204Y-2218740D01*
X470916Y-2225040D01*
X472795Y-2230526D01*
X475894Y-2235403D01*
X477621Y-2237130D01*
X479958Y-2240788D01*
X480568Y-2245055D01*
X479348Y-2249170D01*
X476504Y-2252472D01*
X471881Y-2254402D01*
X460400Y-2258669D01*
X449681Y-2264562D01*
X439877Y-2271877D01*
X431190Y-2280564D01*
X423875Y-2290368D01*
G37*
G36*
X227431Y-2300427D02*
G01*
X293878Y-2300427D01*
X288340Y-2290368D01*
X281025Y-2280564D01*
X272338Y-2271877D01*
X262534Y-2264562D01*
X251764Y-2258669D01*
X240284Y-2254402D01*
X227431Y-2251710D01*
G37*

%LPD*%
D10*
X5435600Y-2819400D02*
G01*
X5246649Y-2630449D01*
X4660900Y-2590800D02*
G01*
X4660900Y-2590800D01*
X4787900Y-2463800D01*
X4787900Y-1790700D01*
X4635500Y-1638300D01*
X4581652Y-1638300D01*
X4165600Y-2819400D02*
G01*
X4394200Y-2590800D01*
X4406900Y-2590800D01*
X3368802Y-470992D02*
G01*
X3532809Y-635000D01*
X3987800Y-635000D01*
X4076700Y-723900D01*
X4076700Y-1641350D01*
X4327649Y-1892300D01*
X4327649Y-1384300D02*
G01*
X4165600Y-1222250D01*
X4165600Y-990600D01*
X4254500Y-901700D01*
X4254500Y-142242D01*
X4307842Y-88900D01*
X4584700Y-88900D01*
X4639792Y-143992D01*
X4639792Y-217017D01*
X4508500Y-584200D02*
G01*
X4508500Y-342900D01*
X4581649Y-1638300D02*
G01*
X4724400Y-1781050D01*
X4724400Y-1943100D01*
X4610100Y-2057400D01*
X4508500Y-2057400D01*
X4483100Y-2082800D01*
X4191000Y-2082800D01*
X4114800Y-2006600D01*
X4114800Y-1828800D01*
X3962400Y-1676400D01*
X3962400Y-749300D01*
X3949700Y-736600D01*
X3213100Y-736600D01*
X3114802Y-638302D01*
X3114802Y-470992D01*
X4581652Y-1892300D02*
G01*
X4441952Y-2032000D01*
X4254500Y-2032000D01*
X4178300Y-1955800D01*
X4178300Y-1828800D01*
X4013200Y-1663700D01*
X4013200Y-736600D01*
X3962400Y-685800D01*
X3302000Y-685800D01*
X3238500Y-622300D01*
X3238500Y-609600D01*
X3708400Y-812800D02*
G01*
X3505200Y-812800D01*
X4971034Y-2354834D02*
G01*
X4902200Y-2286000D01*
X4902200Y-940815D01*
X4762500Y-801115D01*
X4762500Y-114300D01*
X4686300Y-38100D01*
X1803400Y-38100D01*
X1714500Y-127000D01*
X1714500Y-347294D01*
X1590802Y-470992D01*
X1104900Y-2794000D02*
G01*
X1244600Y-2654300D01*
X1663700Y-2654300D01*
X1739900Y-2730500D01*
X1739900Y-2857500D01*
X1801876Y-2919476D01*
X2478024Y-2919476D01*
X2501900Y-2895600D01*
X2501900Y-2743200D01*
X2298700Y-2540000D01*
X2222500Y-2463800D01*
X2342601Y-2583901D02*
G01*
X2222500Y-2463800D01*
X1612900Y-2794000D02*
G01*
X1612900Y-2806700D01*
X1765300Y-2959100D01*
X2661665Y-2959100D01*
X2755900Y-2864865D01*
X2755900Y-2743200D01*
X2676908Y-2664203D01*
X2674106Y-2667000D01*
X2603500Y-2667000D01*
X2184400Y-2247900D01*
X2184400Y-584200D01*
X2222500Y-584200D01*
X2222500Y-139700D01*
X2273300Y-88900D01*
X4002684Y-88900D01*
X4130802Y-217017D01*
X2362200Y-2324100D02*
G01*
X2260600Y-2222500D01*
X2260600Y-773429D01*
X2476500Y-557529D01*
X2476500Y-368300D01*
X2501900Y-342900D01*
X4002709Y-342900D01*
X4130802Y-470992D01*
D11*
X558800Y-2057400D02*
G01*
X1397017Y-2057400D01*
X1460505Y-2120887D01*
X1460507Y-1358887D02*
G01*
X1219220Y-1117600D01*
X127000Y-1117600D01*
D10*
X711200Y-2336800D02*
G01*
X1600200Y-2336800D01*
X1968500Y-1968500D01*
X1968500Y-965200D01*
X1828800Y-825500D01*
D11*
X1460500Y-1612900D02*
G01*
X1562100Y-1612900D01*
X1676400Y-1498600D01*
X1676400Y-1092200D01*
X1562100Y-977900D01*
X241300Y-977900D01*
X127000Y-863600D01*
D10*
X2628900Y-2794000D02*
G01*
X2603500Y-2768600D01*
X2603500Y-2730500D01*
X2133600Y-2260600D01*
X2133600Y-863600D01*
X1892300Y-622300D01*
X1488186Y-622300D01*
X1336802Y-470915D01*
X2374900Y-2794000D02*
G01*
X2057400Y-2476500D01*
X2057400Y-863345D01*
X1867154Y-673100D01*
X1422400Y-673100D01*
X1384300Y-635000D01*
X1246886Y-635000D01*
X1082802Y-470915D01*
X3490887Y-2971800D02*
G01*
X3490887Y-2817787D01*
X3276600Y-2603500D01*
X3073400Y-2603500D02*
G01*
X2882900Y-2794000D01*
X6398590Y-1625574D02*
G01*
X6438900Y-1665884D01*
X6438900Y-2743200D01*
X6210300Y-2971800D01*
X3492500Y-2971800D01*
D12*
G01*
X566089Y-2179294D03*
G01*
X566092Y-2056302D03*
G01*
X566089Y-1629308D03*
D13*
G01*
X546100Y-1471803D03*
G01*
X546100Y-2336800D03*
G01*
X166090Y-1471803D03*
G01*
X166090Y-2336800D03*
D14*
G01*
X127000Y-1117600D03*
D15*
G01*
X127000Y-863600D03*
D16*
G01*
X1460500Y-850900D03*
G01*
X1460500Y-1104900D03*
G01*
X1460500Y-1358900D03*
G01*
X1460500Y-1612900D03*
G01*
X1460500Y-1866900D03*
G01*
X1460500Y-2120900D03*
D17*
G01*
X6398590Y-1625574D03*
G01*
X6403009Y-1371625D03*
D18*
G01*
X1082802Y-217017D03*
G01*
X1336802Y-217017D03*
G01*
X1590802Y-217017D03*
G01*
X1844802Y-217017D03*
G01*
X2098802Y-217017D03*
G01*
X2352802Y-217017D03*
G01*
X2606802Y-217017D03*
G01*
X2860802Y-217017D03*
G01*
X3114802Y-217017D03*
G01*
X3368802Y-217017D03*
G01*
X3622802Y-217017D03*
G01*
X3876802Y-217017D03*
G01*
X4130802Y-217017D03*
G01*
X4384802Y-217017D03*
G01*
X4639792Y-217017D03*
G01*
X4892802Y-217017D03*
G01*
X5146802Y-217017D03*
G01*
X5400802Y-217017D03*
G01*
X5654802Y-217017D03*
G01*
X1082802Y-470992D03*
G01*
X1336802Y-470992D03*
G01*
X1590802Y-470992D03*
G01*
X1844802Y-470992D03*
G01*
X2098802Y-470992D03*
G01*
X2352802Y-470992D03*
G01*
X2606802Y-470992D03*
G01*
X2860802Y-470992D03*
G01*
X3114802Y-470992D03*
G01*
X3368802Y-470992D03*
G01*
X3622802Y-470992D03*
G01*
X3876802Y-470992D03*
G01*
X4130802Y-470992D03*
G01*
X4384802Y-470992D03*
G01*
X4638802Y-470992D03*
G01*
X4892802Y-470992D03*
G01*
X5146802Y-470992D03*
G01*
X5400802Y-470992D03*
G01*
X5654802Y-470992D03*
G01*
X828802Y-217017D03*
G01*
X828802Y-470992D03*
D19*
G01*
X3911602Y-2819400D03*
D20*
G01*
X4165600Y-2819400D03*
G01*
X4419600Y-2819400D03*
G01*
X4673600Y-2819400D03*
G01*
X4927600Y-2819400D03*
G01*
X5181600Y-2819400D03*
G01*
X5435600Y-2819400D03*
G01*
X5689600Y-2819400D03*
D21*
G01*
X850900Y-2794000D03*
D20*
G01*
X1104900Y-2794000D03*
G01*
X1358900Y-2794000D03*
G01*
X1612900Y-2794000D03*
G01*
X1866900Y-2794000D03*
G01*
X2120900Y-2794000D03*
G01*
X2374900Y-2794000D03*
G01*
X2628900Y-2794000D03*
G01*
X2882900Y-2794000D03*
G01*
X3136900Y-2794000D03*
D22*
G01*
X6162598Y-1991309D03*
G01*
X6162598Y-1031290D03*
D23*
G01*
X4581601Y-1892300D03*
G01*
X4327601Y-1892300D03*
G01*
X4581601Y-1638300D03*
G01*
X4327601Y-1638300D03*
G01*
X4581601Y-1384300D03*
G01*
X4327601Y-1384300D03*
G01*
X4581601Y-1130300D03*
D24*
G01*
X4327601Y-1130300D03*
D25*
G01*
X3238500Y-609600D03*
G01*
X4971059Y-2354859D03*
G01*
X5246649Y-2630449D03*
G01*
X4406900Y-2590800D03*
G01*
X4660900Y-2590800D03*
G01*
X3708400Y-812800D03*
G01*
X3505200Y-812800D03*
G01*
X2222500Y-2463800D03*
G01*
X2362200Y-2324100D03*
D26*
G01*
X711200Y-2336800D03*
G01*
X1828800Y-825500D03*
G01*
X3073400Y-2603500D03*
G01*
X3276600Y-2603500D03*
D25*
G01*
X558800Y-2057400D03*
M02*
